<?xml version="1.0" encoding="UTF-8"?>
<!-- Generator: visioncortex VTracer 0.6.12 -->
<svg version="1.1" xmlns="http://www.w3.org/2000/svg" width="1333" height="1333">
<path d="M0 0 C0.83 0.452 1.66 0.905 2.516 1.371 C5.413 3.271 7.578 5.529 10 8 C11.716 9.35 13.446 10.683 15.188 12 C26.585 21.283 34.293 34.582 42.429 46.669 C43.915 48.875 45.412 51.073 46.91 53.27 C47.795 54.575 48.679 55.881 49.562 57.188 C49.956 57.762 50.349 58.337 50.754 58.929 C53.174 62.536 55.192 66.227 57.091 70.132 C60.206 76.534 63.805 82.695 67.438 88.812 C69.857 92.931 72.082 97.088 74.188 101.375 C77.174 107.447 80.363 113.384 83.625 119.312 C88.028 127.32 92.308 135.381 96.5 143.5 C100.638 151.51 104.85 159.471 109.188 167.375 C115.86 179.535 122.432 191.744 128.562 204.188 C131.426 209.974 134.543 215.579 137.737 221.187 C140.435 225.943 142.934 230.764 145.34 235.676 C147.493 239.987 149.746 244.241 152 248.5 C155.763 255.621 159.436 262.777 163 270 C166.785 277.662 170.622 285.293 174.566 292.875 C174.885 293.487 175.203 294.098 175.531 294.729 C175.854 295.35 176.177 295.971 176.51 296.611 C181.949 307.067 187.311 317.528 192.246 328.234 C195.014 334.228 198.017 340.106 200.991 345.999 C202.711 349.411 204.417 352.831 206.125 356.25 C206.732 357.464 207.338 358.677 207.945 359.891 C208.104 360.208 208.104 360.208 208.905 361.816 C209.726 363.454 210.554 365.089 211.386 366.721 C214.982 373.821 218.28 381.009 221.438 388.312 C224.348 395.026 227.309 401.706 230.422 408.328 C234.015 415.976 237.436 423.692 240.812 431.438 C241.113 432.125 241.413 432.812 241.722 433.521 C246.919 445.429 252.03 457.37 256.939 469.4 C257.623 471.076 258.311 472.751 259.002 474.424 C262.527 482.968 265.631 491.571 268.25 500.438 C268.484 501.211 268.719 501.984 268.96 502.78 C274.081 520.864 274.544 539.12 274.811 557.786 C274.867 561.429 274.938 565.071 275.008 568.714 C275.125 574.936 275.234 581.159 275.337 587.381 C275.58 602.062 275.867 616.741 276.151 631.421 C276.215 634.699 276.278 637.977 276.34 641.255 C276.892 670.26 277.633 699.255 278.562 728.25 C278.594 729.239 278.625 730.227 278.658 731.246 C279.039 743.189 279.432 755.132 279.835 767.075 C279.995 771.849 280.153 776.623 280.309 781.398 C280.333 782.143 280.358 782.888 280.383 783.656 C280.431 785.125 280.479 786.595 280.527 788.064 C281.09 805.259 281.67 822.453 282.264 839.646 C282.341 841.884 282.416 844.121 282.492 846.359 C282.574 848.814 282.659 851.27 282.747 853.725 C282.938 859.453 283.068 865.183 283.133 870.914 C283.15 872.121 283.167 873.329 283.184 874.573 C282.78 882.102 279.731 889.165 275 895 C274.34 895 273.68 895 273 895 C273 895.66 273 896.32 273 897 C271.023 898.438 271.023 898.438 268.375 900 C267.516 900.516 266.658 901.031 265.773 901.562 C250.606 909.424 231.406 903.612 215.5 900.938 C212.981 900.523 210.462 900.109 207.942 899.696 C192.326 897.121 176.74 894.396 161.174 891.534 C146.786 888.9 132.345 886.618 117.888 884.396 C109.216 883.054 100.661 881.556 92.096 879.643 C87.344 878.656 82.571 878.096 77.75 877.562 C65.8 876.153 53.93 874.361 42.047 872.473 C39.127 872.02 36.204 871.596 33.277 871.184 C32.84 871.12 32.84 871.12 30.624 870.799 C29.012 870.566 27.399 870.341 25.784 870.127 C21.713 869.525 18.859 869.028 16 866 C15.592 863.39 15.446 861.191 15.47 858.578 C15.461 857.819 15.452 857.061 15.443 856.279 C15.419 853.746 15.422 851.213 15.426 848.68 C15.414 846.887 15.4 845.095 15.384 843.302 C15.354 839.481 15.336 835.66 15.328 831.838 C15.315 825.879 15.276 819.92 15.23 813.961 C15.186 807.986 15.143 802.012 15.11 796.038 C15.022 780.413 14.842 764.792 14.563 749.17 C14.501 745.633 14.446 742.097 14.392 738.56 C14.355 736.437 14.319 734.314 14.281 732.191 C14.274 731.727 14.274 731.727 14.24 729.375 C14.224 728.512 14.207 727.649 14.189 726.76 C14.183 726.394 14.183 726.394 14.151 724.541 C13.941 721.012 13.438 717.507 13 714 C-28.91 713.67 -70.82 713.34 -114 713 C-116.285 774.688 -116.285 774.688 -116.49 791.168 C-116.53 794.298 -116.58 797.428 -116.632 800.558 C-116.777 809.402 -116.912 818.246 -117.029 827.091 C-117.103 832.626 -117.191 838.16 -117.289 843.695 C-117.323 845.77 -117.351 847.844 -117.374 849.919 C-117.405 852.763 -117.454 855.607 -117.508 858.45 C-117.512 859.293 -117.517 860.136 -117.522 861.005 C-117.577 863.326 -117.577 863.326 -118 867 C-121.514 869.343 -123.929 869.653 -128.094 870.309 C-128.816 870.425 -129.538 870.541 -130.283 870.661 C-132.687 871.045 -135.094 871.419 -137.5 871.793 C-139.194 872.062 -140.889 872.331 -142.583 872.601 C-146.183 873.174 -149.783 873.742 -153.384 874.306 C-159.014 875.189 -164.643 876.081 -170.271 876.976 C-176.732 878.002 -183.193 879.026 -189.654 880.047 C-201.503 881.918 -213.348 883.817 -225.188 885.75 C-225.98 885.879 -226.773 886.008 -227.589 886.141 C-237.946 887.828 -248.298 889.547 -258.648 891.277 C-259.842 891.477 -261.035 891.676 -262.264 891.881 C-268.08 892.853 -273.895 893.827 -279.71 894.806 C-290.816 896.67 -301.929 898.483 -313.059 900.207 C-314.123 900.373 -315.188 900.539 -316.284 900.709 C-322.181 901.614 -328.069 902.36 -334 903 C-335.506 903.327 -337.008 903.675 -338.5 904.062 C-351.068 906.631 -363.738 906.141 -374.812 899.25 C-383.523 890.291 -387.194 881.586 -387.125 869.062 C-387.129 868.392 -387.133 867.721 -387.137 867.029 C-387.129 862.723 -386.891 858.473 -386.537 854.181 C-385.843 844.642 -385.621 835.092 -385.369 825.533 C-385.279 822.121 -385.186 818.709 -385.091 815.297 C-384.891 808.052 -384.695 800.807 -384.5 793.562 C-384.274 785.161 -384.046 776.759 -383.812 768.357 C-383.721 765.021 -383.633 761.685 -383.545 758.349 C-383.283 748.714 -382.933 739.12 -382.229 729.507 C-381.797 722.89 -381.663 716.264 -381.5 709.637 C-381.459 708.067 -381.419 706.498 -381.378 704.928 C-381.27 700.722 -381.166 696.517 -381.064 692.311 C-380.999 689.667 -380.934 687.023 -380.868 684.379 C-380.245 659.264 -379.779 634.149 -379.467 609.028 C-379.428 605.917 -379.388 602.807 -379.347 599.697 C-379.031 575.22 -379.031 575.22 -378.928 564.949 C-378.877 559.891 -378.809 554.835 -378.726 549.778 C-378.701 548.066 -378.683 546.355 -378.672 544.643 C-378.565 528.483 -375.874 512.858 -370.375 497.625 C-370.225 497.194 -370.225 497.194 -369.469 495.016 C-368.903 493.389 -368.333 491.764 -367.757 490.142 C-366.802 487.44 -365.896 484.722 -365 482 C-364.34 482 -363.68 482 -363 482 C-362.883 481.313 -362.765 480.626 -362.645 479.918 C-359.447 465.444 -351.831 451.716 -345.584 438.396 C-342.564 431.922 -339.612 425.418 -336.654 418.916 C-334.488 414.175 -332.257 409.486 -329.902 404.837 C-328.481 401.943 -327.253 398.969 -326 396 C-321.566 386.223 -316.853 376.599 -312.016 367.016 C-310.671 364.347 -309.334 361.673 -307.998 358.999 C-306.997 356.995 -305.995 354.991 -304.992 352.988 C-303.679 350.363 -302.373 347.736 -301.07 345.105 C-297.063 337.027 -292.927 329.027 -288.707 321.058 C-286.115 316.153 -283.586 311.223 -281.125 306.25 C-271.698 287.224 -261.741 268.42 -251.527 249.805 C-249.026 245.211 -246.578 240.589 -244.125 235.969 C-242.537 232.986 -240.912 230.026 -239.281 227.066 C-236.75 222.433 -234.311 217.758 -231.906 213.059 C-231.548 212.359 -231.19 211.659 -230.821 210.939 C-229.34 208.043 -227.861 205.147 -226.386 202.249 C-222.557 194.732 -218.701 187.311 -214.274 180.122 C-212.379 176.966 -210.78 173.691 -209.188 170.375 C-206.403 164.685 -203.45 159.128 -200.312 153.625 C-197.54 148.76 -194.88 143.885 -192.422 138.852 C-190.446 134.89 -188.378 130.978 -186.312 127.062 C-185.881 126.242 -185.449 125.422 -185.004 124.576 C-182.847 120.481 -180.677 116.394 -178.48 112.32 C-173.995 103.962 -169.84 95.551 -166 86.875 C-160.363 74.193 -153.679 62.289 -145.473 51.078 C-144 49 -144 49 -142.586 46.637 C-134.166 32.637 -122.034 14.836 -108 6 C-107.34 6 -106.68 6 -106 6 C-106 5.34 -106 4.68 -106 4 C-77.238 -22.407 -31.026 -17.628 0 0 Z M-52 168 C-53.652 173.325 -54.672 178.544 -55.438 184.062 C-55.565 184.96 -55.692 185.857 -55.823 186.781 C-56.905 194.71 -57.68 202.66 -58.438 210.625 C-62.625 254.128 -69.857 297.249 -94.08 334.354 C-95 336 -95 336 -95 338 C-95.66 338 -96.32 338 -97 338 C-98.41 339.617 -98.41 339.617 -100.062 341.875 C-112.683 358.486 -126.794 370.217 -144.715 380.664 C-146.521 381.72 -148.309 382.808 -150.09 383.906 C-168.862 395.057 -192.455 399.394 -213.751 402.657 C-214.683 402.805 -215.614 402.953 -216.574 403.105 C-217.405 403.231 -218.236 403.356 -219.093 403.485 C-219.722 403.655 -220.351 403.825 -221 404 C-221.165 404.33 -221.165 404.33 -222 406 C-221.403 406.108 -221.403 406.108 -218.383 406.655 C-213.88 407.473 -209.379 408.306 -204.88 409.143 C-202.946 409.501 -201.011 409.855 -199.076 410.205 C-187.347 412.328 -176.18 414.819 -165 419 C-164.101 419.328 -163.201 419.655 -162.275 419.992 C-150.144 424.489 -138.048 430.636 -127.891 438.668 C-126 440 -126 440 -124 440 C-124 440.66 -124 441.32 -124 442 C-122.403 443.412 -120.745 444.754 -119.062 446.062 C-108.629 454.455 -99.064 464.203 -92.336 475.891 C-91.895 476.587 -91.454 477.283 -91 478 C-90.34 478 -89.68 478 -89 478 C-88.814 478.908 -88.629 479.815 -88.438 480.75 C-87.439 484.282 -85.825 487.025 -83.875 490.125 C-78.619 498.863 -75.371 508.412 -72 518 C-71.755 518.691 -71.51 519.382 -71.258 520.093 C-63.437 542.505 -59.678 566.316 -55.625 589.625 C-55.171 592.205 -54.717 594.784 -54.262 597.363 C-53.167 603.574 -52.08 609.787 -51 616 C-50.34 615.67 -49.68 615.34 -49 615 C-48.289 612.535 -48.289 612.535 -47.625 609.062 C-47.501 608.415 -47.376 607.767 -47.248 607.1 C-46.023 600.53 -45.056 593.92 -44.062 587.312 C-39.186 555.087 -32.665 521.89 -17 493 C-16.508 492.05 -16.015 491.1 -15.508 490.121 C-7.212 474.36 6.386 451.307 23 443 C23 442.34 23 441.68 23 441 C23.583 440.72 24.166 440.44 24.767 440.152 C26.863 439.07 28.768 437.891 30.723 436.574 C38.585 431.339 46.191 426.506 55 423 C56.112 422.522 57.225 422.044 58.371 421.551 C76.357 413.905 94.961 410.561 114.169 407.493 C116.487 407.089 118.73 406.612 121 406 C121 405.34 121 404.68 121 404 C120.271 403.869 119.542 403.739 118.791 403.604 C83.599 397.274 51.743 389.612 23 367 C22.183 366.395 21.365 365.791 20.523 365.168 C15.994 361.782 12.479 358.446 9 354 C8.237 353.237 7.474 352.474 6.688 351.688 C-32.494 312.506 -39.604 255.422 -45.625 202.938 C-46.215 197.8 -46.812 192.663 -47.414 187.527 C-47.544 186.37 -47.675 185.213 -47.809 184.02 C-48.458 178.484 -49.244 173.297 -51 168 C-51.33 168 -51.66 168 -52 168 Z " fill="#CC0A19" transform="translate(719,177)"/>
<path d="M0 0 C1.05 -0.001 2.1 -0.003 3.183 -0.004 C4.324 -0.001 5.466 0.003 6.642 0.007 C7.852 0.007 9.062 0.006 10.309 0.006 C13.618 0.007 16.928 0.012 20.237 0.019 C23.699 0.025 27.161 0.026 30.623 0.027 C37.175 0.03 43.727 0.038 50.279 0.048 C57.739 0.059 65.2 0.065 72.661 0.07 C88.004 0.08 103.348 0.098 118.691 0.12 C119.021 1.77 119.351 3.42 119.691 5.12 C77.451 4.79 35.211 4.46 -8.309 4.12 C-10.594 65.808 -10.594 65.808 -10.799 82.288 C-10.839 85.418 -10.889 88.548 -10.941 91.679 C-11.086 100.523 -11.221 109.367 -11.338 118.211 C-11.412 123.746 -11.5 129.28 -11.598 134.815 C-11.631 136.89 -11.66 138.965 -11.682 141.04 C-11.714 143.884 -11.763 146.727 -11.816 149.57 C-11.821 150.413 -11.826 151.257 -11.831 152.125 C-11.886 154.447 -11.886 154.447 -12.309 158.12 C-15.819 160.46 -18.934 160.91 -23.006 161.541 C-23.788 161.668 -24.57 161.795 -25.377 161.926 C-27.965 162.344 -30.555 162.752 -33.145 163.159 C-34.945 163.447 -36.744 163.736 -38.544 164.025 C-42.318 164.63 -46.092 165.229 -49.867 165.825 C-54.703 166.589 -59.537 167.362 -64.37 168.139 C-68.088 168.736 -71.806 169.328 -75.524 169.92 C-77.307 170.203 -79.089 170.488 -80.871 170.774 C-83.364 171.173 -85.859 171.566 -88.353 171.959 C-89.088 172.077 -89.823 172.195 -90.58 172.317 C-94.19 172.88 -97.654 173.253 -101.309 173.12 C-98.388 170.2 -94.931 170.219 -90.996 169.62 C-89.479 169.386 -87.962 169.146 -86.446 168.902 C-85.772 168.799 -85.099 168.697 -84.405 168.591 C-82.309 168.12 -82.309 168.12 -79.893 167.122 C-77.148 166.058 -74.744 165.645 -71.824 165.304 C-70.807 165.179 -69.79 165.055 -68.742 164.927 C-67.692 164.805 -66.641 164.683 -65.559 164.558 C-63.459 164.31 -61.36 164.059 -59.262 163.804 C-58.335 163.696 -57.409 163.588 -56.454 163.477 C-54.309 163.12 -54.309 163.12 -53.309 162.12 C-44.469 159.975 -35.435 159.489 -26.391 158.909 C-25.876 158.872 -25.876 158.872 -23.27 158.683 C-22.34 158.622 -21.409 158.562 -20.451 158.499 C-19.744 158.374 -19.037 158.249 -18.309 158.12 C-17.979 157.46 -17.649 156.8 -17.309 156.12 C-16.319 156.12 -15.329 156.12 -14.309 156.12 C-14.311 155.438 -14.313 154.755 -14.316 154.052 C-14.453 109.757 -14.36 65.504 -12.309 21.245 C-12.267 20.329 -12.225 19.412 -12.182 18.468 C-12.064 15.917 -11.938 13.366 -11.809 10.816 C-11.773 10.06 -11.738 9.304 -11.701 8.525 C-11.425 3.353 -11.425 3.353 -10.309 1.12 C-6.854 0.164 -3.57 -0.004 0 0 Z " fill="#CC0A19" transform="translate(613.3087921142578,885.8797454833984)"/>
<path d="M0 0 C1.776 2.664 2.375 3.93 3.035 6.914 C3.205 7.676 3.374 8.438 3.549 9.223 C3.718 10.015 3.888 10.808 4.062 11.625 C4.149 12.01 4.149 12.01 4.588 13.957 C6.678 23.517 7.175 32.927 7.341 42.685 C7.366 43.936 7.391 45.186 7.416 46.474 C7.469 49.195 7.521 51.916 7.57 54.636 C7.649 59.018 7.735 63.399 7.821 67.78 C7.945 74.062 8.066 80.345 8.186 86.627 C8.501 103.078 8.835 119.529 9.176 135.98 C9.193 136.8 9.21 137.62 9.227 138.465 C9.847 168.398 10.611 198.325 11.562 228.25 C11.594 229.238 11.625 230.226 11.658 231.244 C12.038 243.188 12.432 255.131 12.835 267.075 C12.995 271.849 13.153 276.623 13.309 281.398 C13.333 282.143 13.358 282.888 13.383 283.656 C13.431 285.125 13.479 286.595 13.527 288.064 C14.09 305.259 14.67 322.453 15.264 339.646 C15.341 341.884 15.416 344.121 15.492 346.359 C15.574 348.814 15.659 351.27 15.747 353.725 C15.85 356.817 15.932 359.908 16 363 C16.031 364.31 16.061 365.62 16.093 366.97 C16.113 368.328 16.131 369.685 16.148 371.043 C16.168 372.274 16.188 373.506 16.208 374.774 C16 378 16 378 14 382 C14 366.16 14 350.32 14 334 C13.34 334 12.68 334 12 334 C10.852 325.959 10.821 317.944 10.77 309.839 C10.753 307.236 10.73 304.633 10.705 302.03 C10.636 294.631 10.576 287.233 10.523 279.834 C10.379 260.091 10.077 240.386 9.027 220.668 C9.006 220.263 9.006 220.263 8.898 218.213 C8.193 205.061 8.193 205.061 7.496 201.222 C6.964 197.766 6.833 194.464 6.779 190.968 C6.768 190.284 6.756 189.6 6.744 188.895 C6.706 186.615 6.674 184.335 6.643 182.056 C6.617 180.416 6.59 178.776 6.563 177.136 C6.506 173.61 6.452 170.084 6.4 166.558 C6.317 160.977 6.226 155.395 6.133 149.813 C5.872 133.943 5.621 118.073 5.378 102.202 C5.243 93.433 5.103 84.664 4.955 75.894 C4.862 70.353 4.777 64.811 4.698 59.269 C4.647 55.811 4.588 52.354 4.527 48.897 C4.501 47.301 4.477 45.706 4.457 44.11 C4.352 35.863 3.926 28.044 2 20 C1.776 18.171 1.578 16.338 1.438 14.5 C1.105 10.21 1.105 10.21 0 8 C-0.134 5.328 -0.043 2.677 0 0 Z " fill="#CC0A19" transform="translate(986,677)"/>
<path d="M0 0 C2.561 3.845 2.255 7.825 2.195 12.266 C2.192 13.059 2.19 13.852 2.187 14.67 C2.176 17.197 2.15 19.723 2.125 22.25 C2.115 23.966 2.106 25.682 2.098 27.398 C2.076 31.599 2.041 35.799 2 40 C2.66 40 3.32 40 4 40 C4.01 41.106 4.021 42.212 4.031 43.352 C4.129 53.77 4.232 64.187 4.339 74.605 C4.395 79.961 4.448 85.317 4.497 90.673 C4.545 95.841 4.597 101.009 4.653 106.176 C4.673 108.149 4.692 110.122 4.709 112.095 C4.733 114.855 4.763 117.616 4.795 120.376 C4.8 121.194 4.806 122.012 4.812 122.854 C4.858 126.41 5.109 129.572 6 133 C6.022 135.106 6.022 135.106 5.879 137.328 C5.855 137.728 5.855 137.728 5.732 139.75 C5.676 140.575 5.62 141.4 5.562 142.25 C5.51 143.09 5.458 143.931 5.404 144.797 C5.275 146.865 5.138 148.933 5 151 C6.32 151.33 7.64 151.66 9 152 C9 152.66 9 153.32 9 154 C9.285 154.027 9.285 154.027 10.728 154.166 C17.85 154.863 24.957 155.662 32.062 156.5 C32.632 156.565 32.632 156.565 35.514 156.895 C36.593 157.022 37.673 157.15 38.785 157.281 C39.274 157.338 39.274 157.338 41.75 157.627 C44 158 44 158 45 159 C47.213 159.371 49.435 159.684 51.66 159.973 C51.992 160.016 51.992 160.016 53.674 160.237 C55.803 160.516 57.933 160.79 60.062 161.062 C61.503 161.25 62.944 161.438 64.385 161.627 C67.923 162.089 71.461 162.546 75 163 C75 163.33 75 163.66 75 164 C64.809 164.58 55.015 162.812 45 161.188 C43.332 160.923 41.664 160.659 39.996 160.396 C36.673 159.872 33.352 159.338 30.031 158.798 C26.577 158.241 23.12 157.726 19.656 157.237 C18.791 157.111 17.926 156.985 17.035 156.856 C15.388 156.617 13.74 156.387 12.09 156.168 C4.918 155.111 4.918 155.111 2 152 C1.592 149.39 1.446 147.191 1.47 144.578 C1.461 143.819 1.452 143.061 1.443 142.279 C1.419 139.746 1.422 137.213 1.426 134.68 C1.414 132.887 1.4 131.095 1.384 129.302 C1.354 125.481 1.336 121.66 1.328 117.838 C1.315 111.879 1.277 105.92 1.233 99.961 C1.19 93.986 1.147 88.012 1.115 82.038 C1.02 65.21 0.768 48.388 0.438 31.562 C0.372 28.134 0.307 24.706 0.242 21.278 C0.205 19.31 0.167 17.343 0.127 15.375 C0.027 10.249 -0.017 5.127 0 0 Z " fill="#CC0A19" transform="translate(733,891)"/>
<path d="M0 0 C0.33 0 0.66 0 1 0 C1.068 21.738 0.705 43.465 0.31 65.199 C0.226 69.892 0.15 74.585 0.081 79.278 C-0.003 84.989 -0.102 90.699 -0.211 96.41 C-0.25 98.577 -0.284 100.744 -0.312 102.911 C-0.353 105.916 -0.412 108.921 -0.476 111.927 C-0.484 112.821 -0.492 113.716 -0.5 114.638 C-0.563 117.104 -0.563 117.104 -1 121 C-4.51 123.34 -7.625 123.79 -11.697 124.42 C-12.479 124.547 -13.262 124.675 -14.068 124.806 C-16.656 125.224 -19.246 125.632 -21.836 126.039 C-23.636 126.327 -25.436 126.616 -27.235 126.905 C-31.009 127.51 -34.783 128.109 -38.559 128.705 C-43.394 129.469 -48.228 130.242 -53.062 131.019 C-56.779 131.615 -60.497 132.208 -64.216 132.8 C-65.998 133.083 -67.78 133.368 -69.562 133.654 C-72.056 134.052 -74.55 134.446 -77.044 134.838 C-77.779 134.957 -78.514 135.075 -79.271 135.197 C-82.881 135.759 -86.345 136.132 -90 136 C-87.08 133.08 -83.622 133.098 -79.688 132.5 C-78.17 132.266 -76.653 132.026 -75.137 131.781 C-74.463 131.679 -73.79 131.576 -73.096 131.471 C-71 131 -71 131 -68.584 130.002 C-65.84 128.938 -63.435 128.525 -60.516 128.184 C-59.499 128.059 -58.481 127.935 -57.434 127.807 C-56.383 127.685 -55.332 127.563 -54.25 127.438 C-52.151 127.19 -50.052 126.939 -47.953 126.684 C-47.027 126.576 -46.1 126.468 -45.146 126.357 C-43 126 -43 126 -42 125 C-33.16 122.855 -24.126 122.368 -15.082 121.789 C-14.567 121.752 -14.567 121.752 -11.961 121.562 C-11.031 121.502 -10.1 121.441 -9.142 121.379 C-8.435 121.254 -7.728 121.129 -7 121 C-6.67 120.34 -6.34 119.68 -6 119 C-5.01 119 -4.02 119 -3 119 C-3 98.21 -3 77.42 -3 56 C-2.34 56 -1.68 56 -1 56 C-1.005 54.872 -1.01 53.744 -1.016 52.582 C-1.034 48.318 -1.046 44.053 -1.055 39.789 C-1.06 37.958 -1.067 36.128 -1.075 34.297 C-1.129 22.817 -0.898 11.449 0 0 Z " fill="#CC0A19" transform="translate(602,923)"/>
<path d="M0 0 C0.33 0 0.66 0 1 0 C0.939 0.641 0.879 1.282 0.816 1.943 C0.128 9.352 -0.461 16.766 -1 24.188 C-1.082 25.272 -1.165 26.357 -1.25 27.475 C-3.068 52.514 -3.264 77.587 -3.526 102.679 C-3.577 107.554 -3.632 112.428 -3.692 117.303 C-3.718 119.559 -3.739 121.815 -3.76 124.072 C-3.776 125.449 -3.793 126.826 -3.811 128.204 C-3.823 129.399 -3.836 130.595 -3.849 131.827 C-3.985 134.679 -4.411 137.217 -5 140 C-5.102 141.534 -5.165 143.071 -5.189 144.609 C-5.206 145.495 -5.223 146.382 -5.24 147.295 C-5.254 148.247 -5.267 149.199 -5.281 150.18 C-5.29 150.682 -5.29 150.682 -5.337 153.221 C-5.396 156.439 -5.448 159.657 -5.5 162.875 C-5.766 178.932 -6.215 194.96 -7 211 C-7.33 211 -7.66 211 -8 211 C-8.133 195.281 -7.96 179.588 -7.562 163.875 C-7.103 145.667 -6.822 127.459 -6.593 109.247 C-6.521 103.573 -6.446 97.898 -6.369 92.224 C-6.363 91.827 -6.363 91.827 -6.336 89.821 C-6.293 86.668 -6.249 83.515 -6.206 80.362 C-6.087 71.744 -5.978 63.125 -5.89 54.507 C-5.847 50.585 -5.788 46.663 -5.725 42.742 C-5.701 41.045 -5.683 39.349 -5.672 37.653 C-5.593 25.686 -5.445 10.89 0 0 Z " fill="#CC0A19" transform="translate(346,684)"/>
<path d="M0 0 C0.33 0 0.66 0 1 0 C1.201 30.675 0.658 61.333 0 92 C-0.022 93.012 -0.043 94.023 -0.066 95.065 C-0.181 100.392 -0.305 105.718 -0.441 111.044 C-0.48 112.585 -0.518 114.126 -0.554 115.667 C-0.604 117.745 -0.66 119.822 -0.719 121.898 C-0.749 123.04 -0.779 124.181 -0.811 125.357 C-1 128 -1 128 -2 130 C-2.297 133.66 -2.278 137.329 -2.312 141 C-2.342 142.004 -2.371 143.008 -2.4 144.043 C-2.471 152.426 -0.663 159.005 4 166 C4.99 166.33 5.98 166.66 7 167 C7 167.66 7 168.32 7 169 C7.99 169 8.98 169 10 169 C13 172.333 13 172.333 13 175 C13.66 175.33 14.32 175.66 15 176 C9.729 175.398 6.876 173.185 3.457 169.203 C-2.979 161.003 -5.182 153.472 -5.125 143.062 C-5.129 142.392 -5.133 141.721 -5.137 141.029 C-5.129 136.723 -4.891 132.473 -4.537 128.181 C-3.843 118.642 -3.621 109.092 -3.369 99.533 C-3.279 96.121 -3.186 92.709 -3.091 89.297 C-2.891 82.052 -2.695 74.807 -2.5 67.562 C-2.274 59.161 -2.046 50.759 -1.812 42.357 C-1.721 39.021 -1.633 35.685 -1.545 32.349 C-1.251 21.544 -0.855 10.777 0 0 Z " fill="#CC0A19" transform="translate(337,903)"/>
<path d="M0 0 C0.33 0 0.66 0 1 0 C1.033 1.095 1.066 2.189 1.1 3.317 C3.931 96.752 3.931 96.752 5.125 132.188 C5.165 133.384 5.205 134.58 5.247 135.813 C5.582 145.758 5.92 155.702 6.264 165.646 C6.341 167.884 6.416 170.121 6.492 172.359 C6.574 174.814 6.659 177.27 6.747 179.725 C6.85 182.817 6.932 185.908 7 189 C7.031 190.31 7.061 191.62 7.093 192.97 C7.113 194.328 7.131 195.685 7.148 197.043 C7.168 198.274 7.188 199.506 7.208 200.774 C7 204 7 204 5 208 C5 192.16 5 176.32 5 160 C4.34 160 3.68 160 3 160 C2.261 154.175 1.845 148.451 1.811 142.581 C1.802 141.793 1.794 141.005 1.785 140.192 C1.768 138.497 1.753 136.801 1.74 135.105 C1.718 132.408 1.691 129.711 1.663 127.014 C1.604 121.28 1.551 115.546 1.5 109.812 C1.44 103.178 1.378 96.543 1.308 89.909 C1.282 87.276 1.261 84.643 1.24 82.01 C1.162 73.723 0.881 65.525 0.219 57.26 C-0.149 51.78 -0.123 46.31 -0.098 40.82 C-0.096 39.642 -0.095 38.463 -0.093 37.248 C-0.088 33.54 -0.075 29.833 -0.062 26.125 C-0.057 23.587 -0.053 21.049 -0.049 18.512 C-0.038 12.341 -0.021 6.171 0 0 Z " fill="#CC0A19" transform="translate(995,851)"/>
<path d="M0 0 C2.711 4.946 3.531 10.274 4.688 15.75 C4.943 16.948 5.198 18.145 5.462 19.379 C8.692 34.862 11.329 50.458 13.973 66.05 C14.595 69.712 15.246 73.363 16 77 C18.321 66.343 20.027 55.637 21.554 44.838 C21.713 43.753 21.871 42.669 22.035 41.551 C22.173 40.578 22.311 39.605 22.453 38.603 C22.98 36.096 23.74 34.217 25 32 C25.198 40.477 24.643 48.658 23.562 57.062 C23.428 58.176 23.293 59.289 23.154 60.436 C22.145 68.566 22.145 68.566 21 72 C20.34 72 19.68 72 19 72 C18.67 75.63 18.34 79.26 18 83 C16.68 82.67 15.36 82.34 14 82 C13.67 79.69 13.34 77.38 13 75 C12.34 75 11.68 75 11 75 C8.68 64.492 7.582 54.774 8 44 C7.34 44 6.68 44 6 44 C5.67 37.4 5.34 30.8 5 24 C4.34 24 3.68 24 3 24 C2.939 23.218 2.879 22.435 2.816 21.629 C2.733 20.617 2.649 19.605 2.562 18.562 C2.522 18.058 2.522 18.058 2.316 15.504 C2 13 2 13 1 12 C0.766 9.984 0.587 7.962 0.438 5.938 C0.354 4.833 0.27 3.728 0.184 2.59 C0.153 2.163 0.153 2.163 0 0 Z " fill="#CC0A19" transform="translate(653,715)"/>
<path d="M0 0 C0.925 0.001 1.85 0.002 2.803 0.002 C21.477 0.167 35.953 5.034 52.062 14.188 C52.5 14.432 52.5 14.432 54.715 15.672 C57.94 17.754 59.716 20.171 62.062 23.188 C57.653 21.879 54.059 20.164 50.188 17.688 C49.704 17.383 49.704 17.383 47.258 15.844 C46.896 15.57 46.896 15.57 45.062 14.188 C45.062 13.528 45.062 12.868 45.062 12.188 C44.072 12.188 43.082 12.188 42.062 12.188 C42.062 11.528 42.062 10.868 42.062 10.188 C39.092 9.857 36.122 9.528 33.062 9.188 C33.062 8.528 33.062 7.868 33.062 7.188 C32.072 7.518 31.082 7.847 30.062 8.188 C26.252 7.791 24.291 7.34 21.062 5.188 C17.48 3.93 13.948 4.058 10.18 4.055 C9.524 4.054 8.869 4.053 8.193 4.052 C6.813 4.051 5.433 4.053 4.053 4.057 C1.938 4.062 -0.178 4.057 -2.293 4.051 C-3.635 4.051 -4.978 4.053 -6.32 4.055 C-6.931 4.055 -6.931 4.055 -10.02 4.058 C-12.938 4.188 -12.938 4.188 -14.938 5.188 C-16.928 5.155 -18.919 5.122 -20.91 5.086 C-23.52 5.217 -25.543 6.19 -27.938 7.188 C-30.078 6.746 -30.078 6.746 -31.938 6.188 C-29.397 5.37 -26.856 4.558 -24.312 3.75 C-23.6 3.52 -22.887 3.29 -22.152 3.053 C-14.69 0.691 -7.804 -0.007 0 0 Z " fill="#CC0A19" transform="translate(666.9375,162.8125)"/>
<path d="M0 0 C1 2 1 2 0.18 4.539 C-3.76 13.857 -3.76 13.857 -6.75 18.062 C-9.853 22.664 -9.89 27.581 -10 33 C-10.66 33 -11.32 33 -12 33 C-12.124 34.114 -12.247 35.227 -12.375 36.375 C-13 40 -13 40 -15 42 C-15.309 43.176 -15.619 44.351 -15.938 45.562 C-16.288 46.697 -16.639 47.831 -17 49 C-17.495 49.165 -17.495 49.165 -20 50 C-20.061 51.097 -20.121 52.194 -20.184 53.324 C-20.268 54.779 -20.353 56.233 -20.438 57.688 C-20.457 58.048 -20.457 58.048 -20.557 59.873 C-20.905 65.75 -21.734 70.533 -24.168 75.953 C-25.757 79.864 -26.849 83.943 -28 88 C-28.33 88 -28.66 88 -29 88 C-28.625 78.413 -26.943 69.665 -24.375 60.438 C-24.197 59.787 -24.019 59.137 -23.836 58.467 C-19.315 41.949 -14.205 26.08 -6 11 C-5.415 9.911 -4.83 8.821 -4.227 7.699 C-2.833 5.124 -1.425 2.558 0 0 Z " fill="#CC0A19" transform="translate(707,659)"/>
<path d="M0 0 C0.33 0 0.66 0 1 0 C1.025 1.201 1.05 2.402 1.076 3.64 C1.17 8.087 1.27 12.533 1.372 16.98 C1.416 18.906 1.457 20.833 1.497 22.759 C1.555 25.525 1.619 28.29 1.684 31.055 C1.7 31.919 1.717 32.784 1.734 33.675 C1.886 39.772 1.886 39.772 3 42 C3.093 44.411 3.126 46.793 3.114 49.204 C3.114 49.945 3.114 50.687 3.114 51.451 C3.113 53.907 3.105 56.364 3.098 58.82 C3.096 60.521 3.094 62.222 3.093 63.924 C3.09 68.405 3.08 72.887 3.069 77.368 C3.058 81.939 3.054 86.511 3.049 91.082 C3.038 100.055 3.021 109.027 3 118 C2.67 118 2.34 118 2 118 C0.933 112.7 0.782 107.532 0.684 102.148 C0.663 101.164 0.642 100.18 0.62 99.167 C0.554 95.903 0.495 92.639 0.438 89.375 C0.416 88.255 0.395 87.136 0.373 85.983 C-0.161 57.323 -0.1 28.663 0 0 Z " fill="#CC0A19" transform="translate(992,763)"/>
<path d="M0 0 C1.65 0 3.3 0 5 0 C5 2.31 5 4.62 5 7 C5.99 7.33 6.98 7.66 8 8 C8.025 8.625 8.05 9.249 8.076 9.893 C8.193 12.762 8.315 15.631 8.438 18.5 C8.477 19.482 8.516 20.465 8.557 21.477 C8.798 27.037 9.219 32.489 10 38 C10.66 38 11.32 38 12 38 C12.125 45.515 12.125 45.515 11.5 47.938 C10.896 50.43 10.904 52.689 10.938 55.25 C10.942 55.696 10.942 55.696 10.965 57.953 C10.976 58.629 10.988 59.304 11 60 C10.67 60 10.34 60 10 60 C9.929 59.399 9.859 58.799 9.786 58.18 C9.047 51.917 8.299 45.656 7.546 39.395 C7.267 37.059 6.989 34.724 6.714 32.388 C6.318 29.026 5.914 25.665 5.508 22.305 C5.447 21.784 5.447 21.784 5.141 19.151 C5.081 18.66 5.081 18.66 4.778 16.179 C4.676 15.322 4.574 14.465 4.468 13.582 C4 11 4 11 2 5 C0.68 13.91 -0.64 22.82 -2 32 C-2.33 32 -2.66 32 -3 32 C-3.194 29.521 -3.38 27.042 -3.562 24.562 C-3.619 23.855 -3.675 23.148 -3.732 22.42 C-3.862 20.616 -3.935 18.808 -4 17 C-3.67 16.67 -3.34 16.34 -3 16 C-2.627 13.694 -2.301 11.379 -2 9.062 C-1.109 2.217 -1.109 2.217 0 0 Z " fill="#CC0A19" transform="translate(665,341)"/>
<path d="M0 0 C0.33 0 0.66 0 1 0 C1.01 0.605 1.021 1.21 1.031 1.833 C1.139 8.127 1.254 14.421 1.372 20.715 C1.416 23.065 1.457 25.414 1.497 27.763 C1.555 31.139 1.619 34.515 1.684 37.891 C1.7 38.942 1.717 39.993 1.734 41.076 C1.754 42.057 1.774 43.037 1.795 44.048 C1.81 44.909 1.826 45.771 1.842 46.659 C1.993 48.896 2.421 50.841 3 53 C3.022 55.106 3.022 55.106 2.879 57.328 C2.831 58.127 2.782 58.927 2.732 59.75 C2.676 60.575 2.62 61.4 2.562 62.25 C2.51 63.09 2.458 63.931 2.404 64.797 C2.275 66.865 2.138 68.933 2 71 C3.32 71.33 4.64 71.66 6 72 C6 72.66 6 73.32 6 74 C6.57 74.055 7.141 74.11 7.728 74.166 C14.85 74.863 21.957 75.662 29.062 76.5 C30.201 76.63 31.34 76.76 32.514 76.895 C33.593 77.022 34.673 77.15 35.785 77.281 C36.764 77.395 37.742 77.509 38.75 77.627 C41 78 41 78 42 79 C44.213 79.371 46.435 79.684 48.66 79.973 C48.992 80.016 48.992 80.016 50.674 80.237 C52.803 80.516 54.933 80.79 57.062 81.062 C58.503 81.25 59.944 81.438 61.385 81.627 C64.923 82.089 68.461 82.546 72 83 C72 83.33 72 83.66 72 84 C61.809 84.58 52.015 82.812 42 81.188 C40.332 80.923 38.664 80.659 36.996 80.396 C33.675 79.872 30.355 79.34 27.035 78.802 C23.567 78.244 20.096 77.714 16.621 77.202 C15.752 77.071 14.882 76.941 13.986 76.807 C12.326 76.559 10.664 76.316 9.002 76.08 C5.374 75.532 3.098 75.065 0 73 C-0.361 69.988 -0.361 69.988 -0.341 66.072 C-0.341 65.359 -0.341 64.647 -0.342 63.913 C-0.34 61.554 -0.316 59.195 -0.293 56.836 C-0.287 55.202 -0.283 53.568 -0.28 51.934 C-0.269 47.63 -0.239 43.327 -0.206 39.023 C-0.175 34.632 -0.162 30.242 -0.146 25.852 C-0.114 17.234 -0.063 8.617 0 0 Z " fill="#CC0A19" transform="translate(736,971)"/>
<path d="M0 0 C2.291 2.291 2.38 3.099 2.852 6.211 C2.98 7.044 3.109 7.876 3.242 8.734 C3.369 9.606 3.495 10.477 3.625 11.375 C3.759 12.239 3.893 13.102 4.031 13.992 C4.598 17.74 5 21.193 5 25 C5.66 25.33 6.32 25.66 7 26 C7 28.31 7 30.62 7 33 C7.99 33.33 8.98 33.66 10 34 C9.988 34.32 9.988 34.32 9.93 35.941 C9.8 42.174 10.585 47.112 12.73 53.008 C14.935 59.254 16.029 65.459 17 72 C17.33 74.001 17.662 76.001 18 78 C16 77 16 77 15.21 75.108 C14.959 74.284 14.708 73.459 14.449 72.609 C14.165 71.683 13.882 70.757 13.589 69.803 C13.292 68.795 12.994 67.788 12.688 66.75 C12.533 66.23 12.533 66.23 11.749 63.601 C7.549 49.3 4.209 34.941 1.688 20.25 C1.516 19.262 1.344 18.274 1.167 17.256 C0.214 11.423 -0.164 5.91 0 0 Z " fill="#CC0A19" transform="translate(676,401)"/>
<path d="M0 0 C22.576 2.591 46.554 13.466 64 28 C64 28.66 64 29.32 64 30 C65.32 30.66 66.64 31.32 68 32 C66 33 66 33 63.938 32.75 C63.298 32.503 62.659 32.255 62 32 C61.835 31.505 61.835 31.505 61 29 C58.625 27.938 58.625 27.938 56 27 C55.01 26.34 54.02 25.68 53 25 C53 24.34 53 23.68 53 23 C52.175 22.67 52.175 22.67 48 21 C48 20.34 48 19.68 48 19 C45.69 18.67 43.38 18.34 41 18 C41 17.34 41 16.68 41 16 C39.02 15.67 39.02 15.67 29 14 C29 13.01 29 12.02 29 11 C28.546 10.928 28.546 10.928 26.25 10.562 C23.785 10.136 21.412 9.649 19 9 C19 8.34 19 7.68 19 7 C18.567 6.938 18.567 6.938 16.375 6.625 C13.105 6.019 10.127 5.117 7 4 C7 3.34 7 2.68 7 2 C4.69 2 2.38 2 0 2 C0 1.34 0 0.68 0 0 Z " fill="#CC0A19" transform="translate(531,589)"/>
<path d="M0 0 C2.361 0.254 4.715 0.578 7.062 0.938 C8.353 1.132 9.643 1.327 10.973 1.527 C11.972 1.683 12.971 1.839 14 2 C14 2.33 14 2.66 14 3 C9.608 3.696 5.215 4.39 0.823 5.081 C-0.668 5.316 -2.159 5.552 -3.649 5.788 C-17.633 8.006 -17.633 8.006 -23.254 8.594 C-26.135 8.906 -28.713 9.339 -31.5 10.062 C-36.263 11.059 -40.903 11.22 -45.75 11.25 C-46.111 11.255 -46.111 11.255 -47.936 11.278 C-52.332 11.253 -55.915 10.618 -60 9 C-60 8.67 -60 8.34 -60 8 C-59.405 8.005 -58.809 8.01 -58.196 8.016 C-55.506 8.037 -52.815 8.05 -50.125 8.062 C-49.188 8.071 -48.251 8.079 -47.285 8.088 C-46.389 8.091 -45.493 8.094 -44.57 8.098 C-43.743 8.103 -42.915 8.108 -42.063 8.114 C-40 8 -40 8 -38 7 C-35.665 6.66 -33.324 6.368 -30.98 6.098 C-29.551 5.928 -28.122 5.758 -26.693 5.588 C-24.442 5.324 -22.191 5.063 -19.939 4.805 C-17.765 4.554 -15.591 4.295 -13.418 4.035 C-12.116 3.884 -10.815 3.734 -9.473 3.578 C-2.401 2.401 -2.401 2.401 0 0 Z " fill="#CC0A19" transform="translate(412,1071)"/>
<path d="M0 0 C0 0.33 0 0.66 0 1 C-10.065 2.701 -20.132 4.396 -30.199 6.085 C-34.874 6.869 -39.548 7.655 -44.222 8.446 C-48.734 9.209 -53.247 9.967 -57.761 10.722 C-59.481 11.01 -61.201 11.3 -62.92 11.592 C-65.332 12.002 -67.745 12.405 -70.159 12.807 C-70.866 12.928 -71.574 13.05 -72.303 13.175 C-76.245 13.824 -80.007 14.119 -84 14 C-79.75 9.75 -71.111 10.144 -65.297 9.875 C-63.531 9.875 -61.765 9.929 -60 10 C-60 9.34 -60 8.68 -60 8 C-57.064 6.043 -56.102 5.698 -52.77 5.367 C-51.967 5.283 -51.165 5.2 -50.338 5.113 C-49.505 5.035 -48.671 4.956 -47.812 4.875 C-46.968 4.789 -46.123 4.702 -45.252 4.613 C-43.169 4.401 -41.084 4.2 -39 4 C-39 3.67 -39 3.34 -39 3 C-38.395 2.976 -38.395 2.976 -35.336 2.852 C-26.449 2.457 -17.764 1.868 -8.98 0.402 C-5.95 -0.007 -3.054 -0.068 0 0 Z " fill="#CC0A19" transform="translate(510,1059)"/>
<path d="M0 0 C1.32 0.33 2.64 0.66 4 1 C4 1.66 4 2.32 4 3 C2.023 4.438 2.023 4.438 -0.625 6 C-1.484 6.516 -2.342 7.031 -3.227 7.562 C-18.162 15.303 -36.751 9.709 -52.438 7 C-54.73 6.613 -57.022 6.228 -59.314 5.844 C-64.879 4.909 -70.44 3.96 -76 3 C-76 2.67 -76 2.34 -76 2 C-70.641 1.917 -65.547 2.187 -60.219 2.875 C-59.52 2.964 -58.821 3.053 -58.101 3.144 C-55.9 3.425 -53.7 3.712 -51.5 4 C-49.995 4.193 -48.49 4.386 -46.984 4.578 C-43.322 5.047 -39.661 5.522 -36 6 C-36 6.66 -36 7.32 -36 8 C-32.646 8.059 -29.292 8.094 -25.938 8.125 C-24.995 8.142 -24.052 8.159 -23.08 8.176 C-14.901 8.233 -9.329 6.75 -2 3 C-1.34 3 -0.68 3 0 3 C0 2.01 0 1.02 0 0 Z " fill="#CC0A19" transform="translate(988,1071)"/>
<path d="M0 0 C2.78 -0.159 4.66 -0.154 7.223 1.004 C10.703 2.252 13.564 2.159 17.25 2.062 C19.499 2.009 21.75 1.979 24 2 C24.33 2.33 24.66 2.66 25 3 C26.348 3.281 27.704 3.523 29.062 3.75 C36.561 5.169 43.754 7.645 51 10 C50.67 11.32 50.34 12.64 50 14 C48.586 14.224 47.168 14.428 45.75 14.625 C45.356 14.683 45.356 14.683 43.359 14.977 C41 15 41 15 37 13 C38.485 12.835 38.485 12.835 46 12 C46 11.34 46 10.68 46 10 C45.358 9.955 44.716 9.911 44.055 9.865 C36.549 9.271 29.26 8.069 21.875 6.625 C20.76 6.416 19.645 6.207 18.496 5.992 C12.12 4.761 6.108 3.208 0 1 C0 0.67 0 0.34 0 0 Z " fill="#CC0A19" transform="translate(794,571)"/>
<path d="M0 0 C0.33 0 0.66 0 1 0 C2.397 11.552 2.377 23.109 1.523 34.699 C0.761 45.596 0.647 56.509 0.448 67.427 C0.396 70.203 0.339 72.978 0.281 75.754 C0.268 76.595 0.254 77.435 0.24 78.301 C0.149 82.631 -0.151 86.736 -1 91 C-1.33 91 -1.66 91 -2 91 C-2.288 60.68 -1.595 30.279 0 0 Z " fill="#CC0A19" transform="translate(339,872)"/>
<path d="M0 0 C1.409 2.818 0.509 4.173 -0.438 7.125 C-0.581 7.58 -0.581 7.58 -1.309 9.883 C-1.537 10.581 -1.765 11.28 -2 12 C-2.66 12 -3.32 12 -4 12 C-3.67 13.65 -3.34 15.3 -3 17 C-3.66 17.33 -4.32 17.66 -5 18 C-5.155 18.309 -5.155 18.309 -5.938 19.875 C-7 22 -7 22 -8.5 23.438 C-10.416 25.433 -11.054 27.415 -12 30 C-12.652 31.341 -13.314 32.677 -14 34 C-14.66 34 -15.32 34 -16 34 C-16.103 34.701 -16.206 35.403 -16.312 36.125 C-17.094 39.391 -18.421 42.047 -20 45 C-20.99 45 -21.98 45 -23 45 C-21.494 39.896 -19.272 35.465 -16.75 30.812 C-16.347 30.061 -15.945 29.31 -15.53 28.537 C-14.359 26.355 -13.181 24.177 -12 22 C-11.434 20.955 -10.868 19.909 -10.285 18.832 C-8.863 16.218 -7.432 13.608 -6 11 C-4.874 8.938 -3.749 6.875 -2.625 4.812 C-1.75 3.208 -0.875 1.604 0 0 Z " fill="#CC0A19" transform="translate(475,413)"/>
<path d="M0 0 C0.66 0.33 1.32 0.66 2 1 C1.469 1.375 0.938 1.75 0.391 2.137 C-5.629 6.498 -5.629 6.498 -7.938 9.625 C-10.552 12.635 -13.201 13.606 -16.879 15.008 C-19.108 16.05 -20.302 17.258 -22 19 C-22.66 19 -23.32 19 -24 19 C-24 19.99 -24 20.98 -24 22 C-25.65 22.33 -27.3 22.66 -29 23 C-29 24.65 -29 26.3 -29 28 C-33.625 30.125 -33.625 30.125 -37 29 C-33.628 24.363 -29.58 20.44 -25 17 C-24.34 17 -23.68 17 -23 17 C-23 16.34 -23 15.68 -23 15 C-17.78 10.64 -11.749 7.131 -6 3.5 C-4.907 2.809 -3.814 2.118 -2.688 1.406 C-1.801 0.942 -0.914 0.478 0 0 Z " fill="#CC0A19" transform="translate(765,603)"/>
<path d="M0 0 C0.33 0 0.66 0 1 0 C2.21 12.211 2.186 24.422 2.185 36.681 C2.188 40.218 2.206 43.754 2.225 47.291 C2.228 49.542 2.23 51.792 2.23 54.043 C2.238 55.099 2.245 56.155 2.252 57.243 C2.249 58.219 2.246 59.195 2.243 60.2 C2.244 61.057 2.246 61.914 2.247 62.797 C2 65 2 65 0 68 C-1.066 60.359 -1.046 52.92 -0.879 45.215 C-0.855 43.918 -0.832 42.621 -0.807 41.285 C-0.745 37.867 -0.676 34.45 -0.605 31.032 C-0.534 27.532 -0.469 24.033 -0.404 20.533 C-0.276 13.689 -0.14 6.844 0 0 Z " fill="#CC0A19" transform="translate(995,905)"/>
<path d="M0 0 C-3.015 1.683 -5.653 2.43 -9.056 2.961 C-10.061 3.121 -11.066 3.281 -12.101 3.446 C-13.18 3.611 -14.259 3.776 -15.371 3.945 C-15.928 4.033 -15.928 4.033 -18.748 4.475 C-21.104 4.843 -23.46 5.207 -25.817 5.569 C-29.421 6.123 -33.024 6.687 -36.627 7.254 C-38.917 7.61 -41.206 7.966 -43.496 8.32 C-44.573 8.489 -45.651 8.658 -46.76 8.832 C-47.264 8.908 -47.264 8.908 -49.814 9.297 C-50.697 9.433 -51.58 9.57 -52.489 9.71 C-55.017 10.002 -57.458 10.051 -60 10 C-57.08 7.08 -53.622 7.098 -49.688 6.5 C-48.17 6.266 -46.653 6.026 -45.137 5.781 C-44.463 5.679 -43.79 5.576 -43.096 5.471 C-41 5 -41 5 -38.59 4.004 C-35.819 2.93 -33.376 2.505 -30.43 2.148 C-29.367 2.02 -28.305 1.891 -27.211 1.758 C-26.11 1.631 -25.009 1.505 -23.875 1.375 C-22.797 1.241 -21.72 1.107 -20.609 0.969 C-13.706 0.154 -6.949 -0.172 0 0 Z " fill="#CC0A19" transform="translate(572,1049)"/>
<path d="M0 0 C0.33 0 0.66 0 1 0 C1 1.98 1 3.96 1 6 C0.01 6.33 -0.98 6.66 -2 7 C-2.688 9.062 -2.688 9.062 -3 11 C-3.66 11 -4.32 11 -5 11 C-4.67 12.65 -4.34 14.3 -4 16 C-4.66 16 -5.32 16 -6 16 C-6.082 16.598 -6.165 17.196 -6.25 17.812 C-7 20 -7 20 -9 21.438 C-11 23 -11 23 -11.438 25.562 C-11.623 26.367 -11.809 27.171 -12 28 C-12.413 28.155 -12.413 28.155 -14.5 28.938 C-15.325 29.288 -16.15 29.639 -17 30 C-17.812 33.125 -17.812 33.125 -18 36 C-18.66 36 -19.32 36 -20 36 C-18.144 29.658 -15.685 24.196 -12.25 18.562 C-11.811 17.83 -11.372 17.098 -10.92 16.344 C-7.534 10.748 -4.102 5.106 0 0 Z " fill="#CC0A19" transform="translate(575,226)"/>
<path d="M0 0 C0.33 0 0.66 0 1 0 C1.009 0.947 1.019 1.895 1.028 2.871 C1.073 6.431 1.134 9.99 1.208 13.55 C1.236 15.082 1.257 16.614 1.271 18.146 C1.372 28.503 2.104 37.156 8 46 C8.99 46.33 9.98 46.66 11 47 C11 47.66 11 48.32 11 49 C11.99 49 12.98 49 14 49 C17 52.333 17 52.333 17 55 C17.66 55.33 18.32 55.66 19 56 C13.729 55.398 10.876 53.185 7.457 49.203 C1.025 41.008 -1.191 33.469 -1.125 23.062 C-1.123 22.323 -1.121 21.583 -1.119 20.821 C-1.065 13.852 -0.616 6.942 0 0 Z " fill="#CC0A19" transform="translate(333,1023)"/>
<path d="M0 0 C4.117 4.428 5.896 9.233 7.938 14.812 C8.282 15.738 8.626 16.663 8.98 17.617 C17.774 41.525 17.774 41.525 16 46 C13.541 40.746 12.097 35.691 11 30 C10.34 30 9.68 30 9 30 C7.057 27.085 6.723 26.17 6.438 22.875 C6 19 6 19 5 18 C4.628 16.593 4.302 15.174 4 13.75 C3.827 12.942 3.655 12.134 3.477 11.301 C2.973 8.869 2.472 6.438 2 4 C1.34 4 0.68 4 0 4 C0 2.68 0 1.36 0 0 Z " fill="#CC0A19" transform="translate(636,669)"/>
<path d="M0 0 C1.372 4.116 0.288 7.445 -0.625 11.562 C-0.716 11.982 -0.716 11.982 -1.176 14.103 C-2.485 20.007 -3.955 25.858 -5.562 31.688 C-5.76 32.404 -5.957 33.121 -6.161 33.86 C-7.529 38.68 -9.191 43.328 -11 48 C-11.33 48 -11.66 48 -12 48 C-12.054 45.875 -12.093 43.75 -12.125 41.625 C-12.148 40.442 -12.171 39.258 -12.195 38.039 C-12 35 -12 35 -10 33 C-8.558 30.031 -7.961 27.678 -7.562 24.375 C-7 21 -7 21 -5.496 19.582 C-3.508 17.48 -3.608 16.167 -3.5 13.312 C-3.158 8.356 -1.942 4.559 0 0 Z " fill="#CC0A19" transform="translate(654,431)"/>
<path d="M0 0 C2.077 2.077 2.802 3.524 3.953 6.191 C4.323 7.046 4.692 7.901 5.073 8.781 C5.461 9.699 5.85 10.617 6.25 11.562 C6.648 12.499 7.045 13.435 7.455 14.4 C9.976 20.406 12.399 26.44 14.625 32.562 C14.755 32.91 14.755 32.91 15.411 34.668 C16.617 38.091 17.455 40.556 16 44 C13.715 39.741 12.291 35.647 11 31 C10.814 30.639 10.814 30.639 9.875 28.812 C9 27 9 27 9 23 C8.01 22.67 7.02 22.34 6 22 C6 20.35 6 18.7 6 17 C5.01 17.33 4.02 17.66 3 18 C2.34 17.34 1.68 16.68 1 16 C1.66 16 2.32 16 3 16 C2.867 15.348 2.734 14.695 2.598 14.023 C1.655 9.359 0.742 4.701 0 0 Z " fill="#CC0A19" transform="translate(969,633)"/>
<path d="M0 0 C0.925 0.001 1.85 0.002 2.803 0.002 C28.101 0.226 28.101 0.226 34.062 6.188 C31.617 5.704 29.176 5.213 26.744 4.666 C19.119 3.07 11.603 2.815 3.848 2.817 C1.697 2.813 -0.451 2.776 -2.602 2.738 C-10.675 2.676 -17.642 3.551 -25.288 6.423 C-28.043 7.218 -29.295 7.184 -31.938 6.188 C-29.397 5.37 -26.856 4.558 -24.312 3.75 C-23.6 3.52 -22.887 3.29 -22.152 3.053 C-14.69 0.691 -7.804 -0.007 0 0 Z " fill="#CC0A19" transform="translate(666.9375,162.8125)"/>
<path d="M0 0 C1.433 3.853 0.538 6.716 -0.438 10.625 C-1.656 15.875 -2.259 20.451 -1.812 25.816 C-2.067 28.775 -3.445 30.484 -5 33 C-5.789 35.251 -6.517 37.524 -7.188 39.812 C-7.532 40.974 -7.876 42.135 -8.23 43.332 C-8.484 44.212 -8.738 45.093 -9 46 C-9.33 46 -9.66 46 -10 46 C-9.66 36.022 -7.69 26.916 -5 17.375 C-4.627 16.015 -4.254 14.654 -3.883 13.293 C-1.342 4.026 -1.342 4.026 0 0 Z " fill="#CC0A19" transform="translate(688,701)"/>
<path d="M0 0 C1.32 0 2.64 0 4 0 C4.33 1.32 4.66 2.64 5 4 C6.32 4.33 7.64 4.66 9 5 C9.33 6.32 9.66 7.64 10 9 C12.64 8.67 15.28 8.34 18 8 C18.33 8.99 18.66 9.98 19 11 C18.34 11.33 18.34 11.33 15 13 C15.825 13.165 15.825 13.165 20 14 C20 15.32 20 16.64 20 18 C20.33 18.66 20.66 19.32 21 20 C17.562 18.472 14.81 16.498 12 14 C12 13.34 12 12.68 12 12 C10.68 11.34 9.36 10.68 8 10 C8 9.34 8 8.68 8 8 C7.01 7.67 6.02 7.34 5 7 C3.613 5.371 3.613 5.371 2.312 3.438 C1.876 2.797 1.439 2.156 0.988 1.496 C0.825 1.249 0.825 1.249 0 0 Z " fill="#CC0A19" transform="translate(720,523)"/>
<path d="M0 0 C1.379 2.758 0.639 4.672 -0.121 7.559 C-1.835 12.319 -4.453 16.643 -7 21 C-7.66 21 -8.32 21 -9 21 C-9.193 21.71 -9.387 22.421 -9.586 23.152 C-9.846 24.071 -10.107 24.991 -10.375 25.938 C-10.63 26.854 -10.885 27.771 -11.148 28.715 C-12 31 -12 31 -14 32 C-14.722 33.644 -15.394 35.311 -16 37 C-16.66 37 -17.32 37 -18 37 C-16.15 30.471 -13.492 25.212 -9.984 19.418 C-6.327 13.118 -3.196 6.542 0 0 Z " fill="#CC0A19" transform="translate(433,493)"/>
<path d="M0 0 C0.33 0 0.66 0 1 0 C0.404 4.869 -0.57 9.328 -2 14 C-2.66 14 -3.32 14 -4 14 C-3.67 14.99 -3.34 15.98 -3 17 C-3.99 17 -4.98 17 -6 17 C-6.124 17.763 -6.248 18.526 -6.375 19.312 C-7 22 -7 22 -9 25 C-9.66 25 -10.32 25 -11 25 C-11 25.66 -11 26.32 -11 27 C-11.66 27 -12.32 27 -13 27 C-11.496 22.022 -9.411 17.553 -7.062 12.938 C-6.889 12.59 -6.889 12.59 -6.01 10.834 C-4.145 7.136 -2.267 3.472 0 0 Z " fill="#CC0A19" transform="translate(447,466)"/>
<path d="M0 0 C4.074 0.717 7.524 2.687 11.125 4.625 C11.786 4.98 12.446 5.334 13.127 5.7 C18.649 8.715 24.239 11.855 29 16 C29 16.66 29 17.32 29 18 C30.32 18.66 31.64 19.32 33 20 C31 21 31 21 28.938 20.75 C28.298 20.503 27.659 20.255 27 20 C26.67 19.01 26.34 18.02 26 17 C23.625 15.938 23.625 15.938 21 15 C20.01 14.34 19.02 13.68 18 13 C18 12.34 18 11.68 18 11 C16.35 10.34 14.7 9.68 13 9 C13 8.34 13 7.68 13 7 C10.69 6.67 8.38 6.34 6 6 C6 5.34 6 4.68 6 4 C5.01 3.835 5.01 3.835 0 3 C0 2.01 0 1.02 0 0 Z " fill="#CC0A19" transform="translate(566,601)"/>
<path d="M0 0 C5.61 0 11.22 0 17 0 C17 0.66 17 1.32 17 2 C18.237 1.959 19.475 1.918 20.75 1.875 C25.511 1.875 29.978 2.573 34.652 3.43 C37.13 3.852 39.574 4.21 42.066 4.508 C42.751 4.59 43.435 4.673 44.14 4.758 C46.107 4.991 48.075 5.214 50.043 5.438 C51.019 5.623 51.995 5.809 53 6 C53.165 6.33 53.165 6.33 54 8 C50.646 7.69 47.292 7.377 43.938 7.062 C42.995 6.975 42.052 6.888 41.08 6.799 C26.42 5.42 26.42 5.42 25 4 C23.152 3.702 21.294 3.461 19.434 3.246 C18.309 3.114 17.184 2.982 16.025 2.846 C15.433 2.778 15.433 2.778 12.438 2.438 C11.25 2.299 10.062 2.16 8.838 2.018 C5.892 1.675 2.946 1.336 0 1 C0 0.67 0 0.34 0 0 Z " fill="#CC0A19" transform="translate(752,1046)"/>
<path d="M0 0 C5.184 4.556 8.414 10.158 12 16 C12.491 16.753 12.982 17.506 13.488 18.281 C15.972 22.091 17.78 25.565 19 30 C16.688 29.625 16.688 29.625 14 28 C13.011 25.431 12.367 22.902 11.773 20.215 C11.518 19.484 11.263 18.753 11 18 C10.01 17.67 9.02 17.34 8 17 C7.301 15.684 6.633 14.35 6 13 C5.34 12.67 4.68 12.34 4 12 C4 10.68 4 9.36 4 8 C3.34 8 2.68 8 2 8 C0.235 4.912 0 3.767 0 0 Z " fill="#CC0A19" transform="translate(757,219)"/>
<path d="M0 0 C1.32 0.33 2.64 0.66 4 1 C4 1.66 4 2.32 4 3 C2.023 4.438 2.023 4.438 -0.625 6 C-1.484 6.516 -2.342 7.031 -3.227 7.562 C-8.832 10.468 -13.608 11.283 -19.875 11.125 C-20.563 11.116 -21.252 11.107 -21.961 11.098 C-23.641 11.074 -25.32 11.038 -27 11 C-27.33 10.34 -27.66 9.68 -28 9 C-27.397 8.951 -27.397 8.951 -24.344 8.703 C-22.729 8.553 -21.115 8.402 -19.5 8.25 C-18.709 8.188 -17.917 8.126 -17.102 8.062 C-11.966 7.557 -8.107 6.385 -3.611 3.831 C-2 3 -2 3 0 3 C0 2.01 0 1.02 0 0 Z " fill="#CC0A19" transform="translate(988,1071)"/>
<path d="M0 0 C-1.32 0.33 -2.64 0.66 -4 1 C-4 1.66 -4 2.32 -4 3 C-13.057 7.736 -22.014 10.067 -32 12 C-29.839 9.593 -27.997 8.387 -24.98 7.246 C-24.205 6.949 -23.43 6.652 -22.631 6.346 C-21.825 6.046 -21.018 5.746 -20.188 5.438 C-19.79 5.286 -19.79 5.286 -17.779 4.518 C-5.091 -0.299 -5.091 -0.299 0 0 Z " fill="#CC0A19" transform="translate(800,591)"/>
<path d="M0 0 C0.33 0 0.66 0 1 0 C1.121 1.027 1.242 2.055 1.367 3.113 C2.331 11.131 3.422 19.075 5 27 C5.66 27 6.32 27 7 27 C7.125 34.515 7.125 34.515 6.5 36.938 C5.896 39.43 5.904 41.689 5.938 44.25 C5.942 44.696 5.942 44.696 5.965 46.953 C5.976 47.629 5.988 48.304 6 49 C5.67 49 5.34 49 5 49 C4.281 43.469 3.569 37.937 2.864 32.405 C2.623 30.526 2.381 28.647 2.136 26.769 C1.783 24.056 1.438 21.343 1.094 18.629 C0.984 17.8 0.875 16.972 0.762 16.118 C0.085 10.703 -0.096 5.458 0 0 Z " fill="#CC0A19" transform="translate(670,352)"/>
<path d="M0 0 C3.019 5.384 3.793 11.522 5.062 17.5 C5.197 18.108 5.197 18.108 5.877 21.188 C7.505 28.79 8.576 36.236 9 44 C8.01 44 7.02 44 6 44 C5.67 37.4 5.34 30.8 5 24 C4.34 24 3.68 24 3 24 C2.939 23.218 2.879 22.435 2.816 21.629 C2.733 20.617 2.649 19.605 2.562 18.562 C2.522 18.058 2.522 18.058 2.316 15.504 C2 13 2 13 1 12 C0.766 9.984 0.587 7.962 0.438 5.938 C0.354 4.833 0.27 3.728 0.184 2.59 C0.153 2.163 0.153 2.163 0 0 Z " fill="#CC0A19" transform="translate(653,715)"/>
<path d="M0 0 C0.99 0.33 1.98 0.66 3 1 C4.496 1.321 5.997 1.619 7.5 1.902 C8.383 2.07 9.266 2.237 10.175 2.409 C11.107 2.584 12.04 2.758 13 2.938 C13.944 3.116 14.889 3.294 15.862 3.478 C22.237 4.678 28.614 5.863 35 7 C35 7.33 35 7.66 35 8 C11.211 7.219 11.211 7.219 1 5 C0.67 3.35 0.34 1.7 0 0 Z " fill="#CC0A19" transform="translate(495,581)"/>
<path d="M0 0 C2.291 2.291 2.38 3.099 2.852 6.211 C2.98 7.044 3.109 7.876 3.242 8.734 C3.369 9.606 3.495 10.477 3.625 11.375 C3.759 12.239 3.893 13.102 4.031 13.992 C4.598 17.74 5 21.193 5 25 C5.66 25.33 6.32 25.66 7 26 C6.67 29.3 6.34 32.6 6 36 C3.959 32.939 3.528 31.326 2.93 27.773 C2.843 27.257 2.843 27.257 2.402 24.645 C2.228 23.566 2.054 22.487 1.875 21.375 C1.693 20.319 1.511 19.264 1.324 18.176 C0.311 12.029 -0.196 6.228 0 0 Z " fill="#CC0A19" transform="translate(676,401)"/>
<path d="M0 0 C11.142 -0.368 21.145 0.346 32 3 C32 3.66 32 4.32 32 5 C33.65 5 35.3 5 37 5 C37 5.33 37 5.66 37 6 C29.158 6.4 21.691 4.894 14 3.5 C12.639 3.258 11.279 3.018 9.918 2.777 C6.611 2.191 3.305 1.598 0 1 C0 0.67 0 0.34 0 0 Z " fill="#CC0A19" transform="translate(811,1056)"/>
<path d="M0 0 C1.231 3.694 0.644 6.206 0 10 C-1.32 10.33 -2.64 10.66 -4 11 C-4.936 14.155 -5.106 16.966 -5.062 20.25 C-5.058 20.696 -5.058 20.696 -5.035 22.953 C-5.024 23.629 -5.012 24.304 -5 25 C-5.99 25 -6.98 25 -8 25 C-11 26 -11 26 -12 28 C-11.321 23.344 -9.587 19.385 -7.688 15.125 C-7.392 14.443 -7.096 13.761 -6.791 13.059 C-4.792 8.525 -2.522 4.265 0 0 Z " fill="#CC0A19" transform="translate(403,552)"/>
<path d="M0 0 C0 4.287 -2.503 6.353 -5.188 9.438 C-5.429 9.724 -5.429 9.724 -6.65 11.174 C-9.518 14.519 -12.446 17.356 -16 20 C-16.33 18.35 -16.66 16.7 -17 15 C-16.01 15 -15.02 15 -14 15 C-13.67 13.02 -13.34 11.04 -13 9 C-11.02 9 -9.04 9 -7 9 C-6.773 8.443 -6.546 7.886 -6.312 7.312 C-4.641 4.368 -2.447 2.318 0 0 Z " fill="#CC0A19" transform="translate(621,515)"/>
<path d="M0 0 C0.66 0 1.32 0 2 0 C2 0.99 2 1.98 2 3 C2.32 3.155 2.32 3.155 3.938 3.938 C6 5 6 5 7 6 C7.041 8 7.043 10 7 12 C7.66 12 8.32 12 9 12 C9.697 13.788 10.382 15.581 11.062 17.375 C11.445 18.373 11.828 19.37 12.223 20.398 C13 23 13 23 12 25 C0 5.184 0 5.184 0 0 Z " fill="#CC0A19" transform="translate(694,480)"/>
<path d="M0 0 C4.775 0.527 7.978 1.877 12.062 4.375 C12.563 4.678 12.563 4.678 15.098 6.211 C16.055 6.801 17.013 7.392 18 8 C18.889 8.504 19.779 9.008 20.695 9.527 C23.908 11.58 25.67 14.005 28 17 C23.591 15.692 19.997 13.976 16.125 11.5 C15.158 10.892 14.191 10.283 13.195 9.656 C12.471 9.11 11.746 8.563 11 8 C11 7.34 11 6.68 11 6 C10.01 6 9.02 6 8 6 C8 5.34 8 4.68 8 4 C7.423 3.897 6.845 3.794 6.25 3.688 C3.68 2.902 2.063 1.695 0 0 Z " fill="#CC0A19" transform="translate(701,169)"/>
<path d="M0 0 C1.312 3.937 0.243 6.125 -1 10 C-1.66 10 -2.32 10 -3 10 C-3.66 12.97 -4.32 15.94 -5 19 C-5.66 19 -6.32 19 -7 19 C-7.33 20.32 -7.66 21.64 -8 23 C-9.32 23.33 -10.64 23.66 -12 24 C-10.717 20.668 -9.29 17.509 -7.617 14.355 C-7.172 13.514 -6.728 12.673 -6.27 11.807 C-6.039 11.374 -6.039 11.374 -4.875 9.188 C-4.407 8.304 -3.939 7.42 -3.457 6.51 C-2.307 4.339 -1.155 2.169 0 0 Z " fill="#CC0A19" transform="translate(520,328)"/>
<path d="M0 0 C23.789 0.368 23.789 0.368 34 5 C34 5.33 34 5.66 34 6 C26.173 5.421 18.532 4.339 10.812 2.938 C9.765 2.751 8.718 2.565 7.639 2.373 C5.092 1.919 2.546 1.462 0 1 C0 0.67 0 0.34 0 0 Z " fill="#CC0A19" transform="translate(848,1062)"/>
<path d="M0 0 C0 0.66 0 1.32 0 2 C-0.319 2.024 -0.319 2.024 -1.934 2.148 C-2.76 2.223 -3.586 2.298 -4.438 2.375 C-4.849 2.41 -4.849 2.41 -6.934 2.586 C-7.616 2.723 -8.297 2.859 -9 3 C-9.33 3.66 -9.66 4.32 -10 5 C-13.465 5.165 -13.465 5.165 -31 6 C-27.073 4.036 -23.972 3.26 -19.688 2.438 C-18.413 2.189 -17.138 1.94 -15.824 1.684 C-10.53 0.737 -5.39 -0.163 0 0 Z " fill="#CC0A19" transform="translate(831,585)"/>
<path d="M0 0 C0 0.99 0 1.98 0 3 C-0.763 3.742 -1.526 4.485 -2.312 5.25 C-4.702 7.695 -5.471 8.739 -6.625 11.75 C-7.079 12.822 -7.533 13.895 -8 15 C-8.99 15.33 -9.98 15.66 -11 16 C-11.227 16.557 -11.227 16.557 -12.375 19.375 C-14.125 23.28 -15.202 24.255 -19 26 C-17.391 20.947 -14.361 17.16 -11.188 13 C-10.666 12.301 -10.145 11.603 -9.607 10.883 C-6.637 6.952 -3.579 3.387 0 0 Z " fill="#CC0A19" transform="translate(727,633)"/>
<path d="M0 0 C4.531 2.824 8.173 5.917 11.875 9.75 C12.373 10.257 12.87 10.763 13.383 11.285 C14.593 12.519 15.797 13.759 17 15 C16.67 15.66 16.34 16.32 16 17 C11.72 14.249 7.841 11.34 4 8 C3.216 7.319 2.433 6.639 1.625 5.938 C0 4 0 4 0 0 Z " fill="#CC0A19" transform="translate(599,622)"/>
<path d="M0 0 C10.89 0 21.78 0 33 0 C28.766 4.234 20.145 3.182 14.375 3.188 C13.651 3.2 12.926 3.212 12.18 3.225 C7.728 3.237 4.196 2.675 0 1 C0 0.67 0 0.34 0 0 Z " fill="#CC0A19" transform="translate(352,1079)"/>
<path d="M0 0 C1.056 3.66 0.912 6.268 0 10 C-0.33 10.165 -0.33 10.165 -2 11 C-2.852 13.066 -2.852 13.066 -3.625 15.562 C-3.885 16.389 -4.146 17.215 -4.414 18.066 C-4.607 18.704 -4.801 19.343 -5 20 C-5.66 20 -6.32 20 -7 20 C-7.33 20.825 -7.33 20.825 -9 25 C-10 23 -10 23 -9.18 20.312 C-6.439 13.354 -3.506 6.609 0 0 Z " fill="#CC0A19" transform="translate(371,621)"/>
<path d="M0 0 C3.223 4.078 5.159 8.397 7.25 13.125 C7.438 13.537 7.438 13.537 8.391 15.621 C8.741 16.409 9.092 17.196 9.453 18.008 C9.774 18.726 10.096 19.444 10.427 20.184 C11 22 11 22 10 24 C9.753 23.381 9.505 22.763 9.25 22.125 C7.794 19.649 6.622 19.049 4 18 C4.33 16.35 4.66 14.7 5 13 C4.34 13 3.68 13 3 13 C0.334 8.446 -0.316 5.261 0 0 Z " fill="#CC0A19" transform="translate(937,560)"/>
<path d="M0 0 C-2.497 1.588 -4.998 3.17 -7.5 4.75 C-8.196 5.193 -8.892 5.637 -9.609 6.094 C-14.283 9.037 -18.954 11.74 -24 14 C-24.66 13.67 -25.32 13.34 -26 13 C-21.5 9 -21.5 9 -17 9 C-16.67 8.01 -16.34 7.02 -16 6 C-12.621 3.534 -11.294 3 -7 3 C-7 2.01 -7 1.02 -7 0 C-2.25 -1.125 -2.25 -1.125 0 0 Z " fill="#CC0A19" transform="translate(588,550)"/>
<path d="M0 0 C3.529 4.052 5.849 8.275 8.188 13.062 C8.365 13.416 8.365 13.416 9.264 15.205 C10.876 18.463 12.207 21.436 13 25 C12.34 25 11.68 25 11 25 C8.213 21.981 7.281 18.842 6 15 C5.34 14.67 4.68 14.34 4 14 C3.375 10.938 3.375 10.938 3 8 C2.34 8 1.68 8 1 8 C0.67 5.36 0.34 2.72 0 0 Z " fill="#CC0A19" transform="translate(867,420)"/>
<path d="M0 0 C0.66 0.33 1.32 0.66 2 1 C1.3 1.691 0.6 2.382 -0.121 3.094 C-3.182 6.156 -6.128 9.318 -9.062 12.5 C-9.579 13.056 -10.095 13.611 -10.627 14.184 C-19.353 23.632 -19.353 23.632 -20 28 C-20.99 28 -21.98 28 -23 28 C-21.623 23.897 -19.764 21.332 -16.812 18.188 C-16.009 17.321 -15.206 16.455 -14.379 15.562 C-13.594 14.717 -12.809 13.871 -12 13 C-10.744 11.568 -9.494 10.131 -8.25 8.688 C-5.614 5.658 -2.883 2.795 0 0 Z " fill="#CC0A19" transform="translate(607,186)"/>
<path d="M0 0 C2.197 2.036 3.64 3.904 4.973 6.582 C5.315 7.267 5.657 7.952 6.01 8.658 C6.357 9.369 6.705 10.08 7.062 10.812 C7.238 11.162 7.238 11.162 8.127 12.932 C10.082 16.882 11.718 20.769 13 25 C12.34 25 11.68 25 11 25 C10.746 24.374 10.492 23.747 10.23 23.102 C9.886 22.284 9.542 21.467 9.188 20.625 C8.851 19.813 8.515 19.001 8.168 18.164 C7 16 7 16 4 14 C4 13.01 4 12.02 4 11 C3.34 11 2.68 11 2 11 C2 8.69 2 6.38 2 4 C1.34 4 0.68 4 0 4 C0 2.68 0 1.36 0 0 Z " fill="#CC0A19" transform="translate(835,359)"/>
<path d="M0 0 C4.957 0.437 7.272 2.894 11 6 C13.875 6.812 13.875 6.812 16 7 C16 7.99 16 8.98 16 10 C16.99 10.33 17.98 10.66 19 11 C19 11.66 19 12.32 19 13 C15.16 11.59 11.833 9.807 8.375 7.625 C7.434 7.04 6.493 6.455 5.523 5.852 C3.111 4.081 1.631 2.485 0 0 Z " fill="#CC0A19" transform="translate(741,543)"/>
<path d="M0 0 C0.33 0 0.66 0 1 0 C0.67 2.64 0.34 5.28 0 8 C-0.66 8 -1.32 8 -2 8 C-2.124 8.722 -2.248 9.444 -2.375 10.188 C-2.99 12.957 -3.884 15.397 -5 18 C-5.66 18 -6.32 18 -7 18 C-7.99 20.31 -8.98 22.62 -10 25 C-10.66 25 -11.32 25 -12 25 C-10.504 19.792 -8.147 15.456 -5.438 10.812 C-4.621 9.404 -3.807 7.994 -2.996 6.582 C-2.637 5.966 -2.278 5.349 -1.908 4.714 C-1 3 -1 3 0 0 Z " fill="#CC0A19" transform="translate(507,352)"/>
<path d="M0 0 C3.782 4.202 9 11.094 9 17 C8.34 17 7.68 17 7 17 C6.67 16.34 6.34 15.68 6 15 C5.01 14.67 4.02 14.34 3 14 C2.67 11.36 2.34 8.72 2 6 C1.34 6.33 1.34 6.33 -2 8 C-1.34 5.36 -0.68 2.72 0 0 Z " fill="#CC0A19" transform="translate(802,297)"/>
<path d="M0 0 C0 0.66 0 1.32 0 2 C-5.761 3.17 -11.519 3.332 -17.375 3.562 C-18.397 3.606 -19.419 3.649 -20.473 3.693 C-22.982 3.799 -25.491 3.901 -28 4 C-22.468 -1.532 -7.428 -0.278 0 0 Z " fill="#CC0A19" transform="translate(400,1076)"/>
<path d="M0 0 C2.938 -0.054 5.875 -0.094 8.812 -0.125 C9.229 -0.133 9.229 -0.133 11.338 -0.176 C12.14 -0.182 12.943 -0.189 13.77 -0.195 C14.508 -0.206 15.246 -0.216 16.007 -0.227 C18 0 18 0 21 2 C23.64 2.818 26.303 3.381 29 4 C29 4.33 29 4.66 29 5 C22.658 5.285 16.777 4.197 10.562 3 C10.054 2.905 10.054 2.905 7.479 2.422 C4.985 1.954 2.492 1.479 0 1 C0 0.67 0 0.34 0 0 Z " fill="#CC0A19" transform="translate(883,1068)"/>
<path d="M0 0 C2.64 0.33 5.28 0.66 8 1 C8 1.66 8 2.32 8 3 C8.887 3.124 9.774 3.247 10.688 3.375 C13.725 3.948 16.157 4.834 19 6 C20.659 6.369 22.325 6.713 24 7 C24.33 7.99 24.66 8.98 25 10 C20.427 9.365 16.291 8.218 11.938 6.688 C10.75 6.279 9.563 5.87 8.34 5.449 C5.028 4.012 2.689 2.384 0 0 Z " fill="#CC0A19" transform="translate(769,561)"/>
<path d="M0 0 C2.984 3.516 5.201 6.997 7.25 11.125 C7.771 12.159 8.292 13.193 8.828 14.258 C10 17 10 17 10 20 C7 19 7 19 5 16 C4.875 13.312 4.875 13.312 5 11 C4.34 11 3.68 11 3 11 C0 4.5 0 4.5 0 0 Z " fill="#CC0A19" transform="translate(910,505)"/>
<path d="M0 0 C1.216 3.648 0.332 4.677 -1.23 8.016 C-2.499 11.286 -2.695 14.519 -3 18 C-4.98 18.66 -6.96 19.32 -9 20 C-7.557 15.262 -5.628 11.011 -3.375 6.625 C-3.213 6.305 -3.213 6.305 -2.391 4.684 C-1.597 3.121 -0.799 1.56 0 0 Z " fill="#CC0A19" transform="translate(546,278)"/>
<path d="M0 0 C3.838 2.559 4.649 4.351 5.598 8.805 C5.674 9.311 5.674 9.311 6.062 11.875 C6.218 12.883 6.374 13.891 6.535 14.93 C6.612 15.436 6.612 15.436 7 18 C7.33 20 7.663 22.001 8 24 C6 23 6 23 5.222 21.098 C4.981 20.285 4.74 19.471 4.492 18.633 C4.228 17.747 3.964 16.862 3.691 15.949 C3.557 15.483 3.557 15.483 2.875 13.125 C2.598 12.201 2.321 11.276 2.035 10.324 C0 3.417 0 3.417 0 0 Z " fill="#CC0A19" transform="translate(686,455)"/>
<path d="M0 0 C0.981 3.053 0.981 4.947 0 8 C-0.66 8 -1.32 8 -2 8 C-2 8.99 -2 9.98 -2 11 C-2.99 11 -3.98 11 -5 11 C-5 13.31 -5 15.62 -5 18 C-6.65 18.66 -8.3 19.32 -10 20 C-7.305 13.045 -3.994 6.306 0 0 Z " fill="#CC0A19" transform="translate(531,308)"/>
<path d="M0 0 C0.66 0.99 1.32 1.98 2 3 C1.34 3 0.68 3 0 3 C0.186 3.454 0.186 3.454 1.125 5.75 C2 9 2 9 1.125 11.375 C0.754 11.911 0.382 12.447 0 13 C-0.66 13 -1.32 13 -2 13 C-2 12.34 -2 11.68 -2 11 C-2.66 11 -3.32 11 -4 11 C-4.33 12.98 -4.66 14.96 -5 17 C-5.66 17 -6.32 17 -7 17 C-5.167 11.001 -2.927 5.551 0 0 Z " fill="#CC0A19" transform="translate(390,580)"/>
<path d="M0 0 C0.33 0.66 0.66 1.32 1 2 C0.215 3.812 0.215 3.812 -1.062 6 C-1.524 6.793 -1.985 7.586 -2.461 8.402 C-2.715 8.831 -2.715 8.831 -4 11 C-4.264 11.465 -4.264 11.465 -5.602 13.816 C-6.125 14.723 -6.648 15.629 -7.188 16.562 C-7.676 17.409 -8.165 18.256 -8.668 19.129 C-9.108 19.746 -9.547 20.364 -10 21 C-10.66 21 -11.32 21 -12 21 C-11.845 20.474 -11.845 20.474 -11.062 17.812 C-10.243 14.872 -9.545 11.998 -9 9 C-7.68 9 -6.36 9 -5 9 C-3.35 6.03 -1.7 3.06 0 0 Z " fill="#CC0A19" transform="translate(634,494)"/>
<path d="M0 0 C3.001 1.501 3.599 3.839 5.062 6.812 C5.59 7.871 6.117 8.929 6.66 10.02 C7.727 12.394 8.502 14.462 9 17 C6.398 14.528 4.141 11.88 2 9 C2 8.34 2 7.68 2 7 C0.68 7 -0.64 7 -2 7 C-2 5.35 -2 3.7 -2 2 C-1.34 2 -0.68 2 0 2 C0 1.34 0 0.68 0 0 Z " fill="#CC0A19" transform="translate(858,403)"/>
<path d="M0 0 C1 2 1 2 0.18 4.539 C-5.886 18.886 -5.886 18.886 -11 24 C-10.377 19.111 -8.287 15.197 -6.062 10.875 C-5.702 10.16 -5.342 9.444 -4.971 8.707 C-3.431 5.672 -1.893 2.839 0 0 Z " fill="#CC0A19" transform="translate(707,659)"/>
<path d="M0 0 C0.66 0.33 1.32 0.66 2 1 C1.469 1.375 0.938 1.75 0.391 2.137 C-5.648 6.511 -5.648 6.511 -7.938 9.688 C-10.98 13.099 -14.669 13.862 -19 15 C-14.491 10.116 -14.491 10.116 -11.875 9.5 C-11.256 9.335 -10.638 9.17 -10 9 C-9.567 8.237 -9.134 7.474 -8.688 6.688 C-6.339 2.947 -3.975 1.879 0 0 Z " fill="#CC0A19" transform="translate(765,603)"/>
<path d="M0 0 C3.939 4.377 6.951 9.48 9 15 C8.67 15.99 8.34 16.98 8 18 C8 17.34 8 16.68 8 16 C7.01 16 6.02 16 5 16 C5 15.34 5 14.68 5 14 C4.34 14 3.68 14 3 14 C2.493 12.419 1.995 10.835 1.5 9.25 C1.222 8.368 0.943 7.487 0.656 6.578 C0 4 0 4 0 0 Z " fill="#CC0A19" transform="translate(922,529)"/>
<path d="M0 0 C8.84 1.209 16.704 3.827 25 7 C19.188 8.937 12.59 6.007 7 4 C7 3.34 7 2.68 7 2 C4.69 2 2.38 2 0 2 C0 1.34 0 0.68 0 0 Z " fill="#CC0A19" transform="translate(531,589)"/>
<path d="M0 0 C2.278 2.879 4.04 5.783 5.688 9.062 C6.124 9.92 6.561 10.777 7.012 11.66 C8 14 8 14 8 17 C6.35 16.67 4.7 16.34 3 16 C2.496 13.897 1.997 11.792 1.5 9.688 C1.361 9.102 1.361 9.102 0.656 6.137 C0 3 0 3 0 0 Z " fill="#CC0A19" transform="translate(902,488)"/>
<path d="M0 0 C1.409 2.818 0.509 4.173 -0.438 7.125 C-0.725 8.035 -1.012 8.945 -1.309 9.883 C-1.423 10.232 -1.423 10.232 -2 12 C-2.66 12 -3.32 12 -4 12 C-3.67 13.65 -3.34 15.3 -3 17 C-3.66 17.33 -4.32 17.66 -5 18 C-6.125 20.062 -6.125 20.062 -7 22 C-8.858 18.285 -6.393 14.065 -5.191 10.289 C-3.819 6.501 -2.192 3.366 0 0 Z " fill="#CC0A19" transform="translate(475,413)"/>
<path d="M0 0 C2.406 3.058 4.362 6.225 6.25 9.625 C6.791 10.587 7.333 11.548 7.891 12.539 C8.257 13.351 8.623 14.163 9 15 C8.67 15.66 8.34 16.32 8 17 C7.01 16.67 6.02 16.34 5 16 C5 15.01 5 14.02 5 13 C4.01 12.67 3.02 12.34 2 12 C2.33 11.01 2.66 10.02 3 9 C2.34 9 1.68 9 1 9 C0.67 6.03 0.34 3.06 0 0 Z " fill="#CC0A19" transform="translate(826,342)"/>
<path d="M0 0 C0.66 0 1.32 0 2 0 C2 1.98 2 3.96 2 6 C1.34 6 0.68 6 0 6 C-0.254 7.12 -0.508 8.24 -0.77 9.395 C-1.117 10.867 -1.464 12.34 -1.812 13.812 C-1.978 14.55 -2.144 15.288 -2.314 16.049 C-3.927 22.772 -3.927 22.772 -7 25 C-6.386 19.207 -4.845 14.054 -2.938 8.562 C-2.656 7.736 -2.374 6.909 -2.084 6.057 C-1.395 4.036 -0.698 2.018 0 0 Z " fill="#CC0A19" transform="translate(354,659)"/>
<path d="M0 0 C2.433 3.649 3.721 7.327 5.188 11.438 C5.473 12.201 5.759 12.965 6.053 13.752 C6.318 14.493 6.583 15.233 6.855 15.996 C6.977 16.332 6.977 16.332 7.594 18.033 C8.069 20.333 7.722 21.789 7 24 C4.715 19.741 3.291 15.647 2 11 C1.629 10.34 1.258 9.68 0.875 9 C-0.431 6.015 -0.123 3.21 0 0 Z " fill="#CC0A19" transform="translate(978,653)"/>
<path d="M0 0 C5.382 3.588 8.49 8.7 12 14 C11.67 14.66 11.34 15.32 11 16 C9 14.625 9 14.625 7 13 C7 12.34 7 11.68 7 11 C6.34 11 5.68 11 5 11 C5 10.34 5 9.68 5 9 C4.34 9 3.68 9 3 9 C2.01 6.03 1.02 3.06 0 0 Z " fill="#CC0A19" transform="translate(616,639)"/>
<path d="M0 0 C0.66 0.33 1.32 0.66 2 1 C0.753 1.962 -0.498 2.92 -1.75 3.875 C-2.446 4.409 -3.142 4.942 -3.859 5.492 C-7.718 8.21 -10.24 9.264 -15 9 C-12.075 5.763 -9.351 3.961 -5.375 2.188 C-4.413 1.748 -3.452 1.308 -2.461 0.855 C-1.649 0.573 -0.837 0.291 0 0 Z " fill="#CC0A19" transform="translate(633,170)"/>
<path d="M0 0 C2.533 3.8 3.167 7.334 4.125 11.75 C4.307 12.536 4.489 13.323 4.676 14.133 C5.722 18.867 6.194 23.154 6 28 C3.22 25.22 3.45 22.994 3 19.125 C2.506 14.897 1.949 11.752 0 8 C-0.246 5.3 -0.091 2.72 0 0 Z " fill="#CC0A19" transform="translate(986,677)"/>
<path d="M0 0 C3.195 3.792 5.148 8.114 7.25 12.562 C7.626 13.33 8.003 14.098 8.391 14.889 C8.741 15.628 9.092 16.367 9.453 17.129 C9.774 17.8 10.096 18.471 10.427 19.162 C11 21 11 21 10 24 C8.705 21.606 7.414 19.21 6.125 16.812 C5.76 16.139 5.395 15.465 5.02 14.771 C0 5.417 0 5.417 0 0 Z " fill="#CC0A19" transform="translate(948,585)"/>
<path d="M0 0 C1 2 1 2 0.074 5.004 C-0.155 5.591 -0.155 5.591 -1.312 8.562 C-1.762 9.739 -2.212 10.916 -2.676 12.129 C-4 15 -4 15 -6 16 C-6.722 17.644 -7.394 19.311 -8 21 C-8.66 21 -9.32 21 -10 21 C-7.801 13.24 -4.228 6.845 0 0 Z " fill="#CC0A19" transform="translate(425,509)"/>
<path d="M0 0 C1.454 3.903 0.578 7.016 -0.312 11 C-0.577 12.217 -0.841 13.434 -1.113 14.688 C-1.85 17.44 -2.687 19.512 -4 22 C-4.415 23.405 -4.792 24.823 -5.125 26.25 C-5.414 27.487 -5.702 28.725 -6 30 C-7.204 26.499 -6.779 24.222 -5.82 20.684 C-5.551 19.672 -5.281 18.661 -5.004 17.619 C-4.714 16.569 -4.424 15.519 -4.125 14.438 C-3.843 13.384 -3.56 12.33 -3.27 11.244 C-2.252 7.466 -1.237 3.712 0 0 Z " fill="#CC0A19" transform="translate(688,701)"/>
<path d="M0 0 C1.051 3.152 0.973 4.078 0.293 7.203 C0.118 8.019 -0.056 8.835 -0.236 9.676 C-0.426 10.525 -0.617 11.375 -0.812 12.25 C-0.991 13.084 -1.17 13.918 -1.354 14.777 C-2.397 19.578 -3.594 24.293 -5 29 C-6.352 25.621 -5.625 23.421 -4.535 20.051 C-3.923 17.706 -3.737 15.478 -3.562 13.062 C-3.164 8.247 -1.889 4.435 0 0 Z " fill="#CC0A19" transform="translate(654,431)"/>
<path d="M0 0 C2.681 2.382 4.114 4.855 5.688 8.062 C6.124 8.94 6.561 9.818 7.012 10.723 C8 13 8 13 8 15 C7.01 15 6.02 15 5 15 C1.654 9.819 0.432 6.152 0 0 Z " fill="#CC0A19" transform="translate(776,249)"/>
<path d="M0 0 C2.78 -0.159 4.66 -0.154 7.223 1.004 C10.703 2.252 13.564 2.159 17.25 2.062 C19.499 2.009 21.75 1.979 24 2 C24.33 2.33 24.66 2.66 25 3 C27.328 3.368 29.662 3.702 32 4 C32 4.33 32 4.66 32 5 C20.942 5.225 10.401 5.055 0 1 C0 0.67 0 0.34 0 0 Z " fill="#CC0A19" transform="translate(794,571)"/>
<path d="M0 0 C1 2 1 2 0.512 4.059 C0.376 4.451 0.376 4.451 -0.312 6.438 C-0.445 6.829 -0.445 6.829 -1.113 8.809 C-2 11 -2 11 -4 14 C-4.66 14 -5.32 14 -6 14 C-6.33 15.65 -6.66 17.3 -7 19 C-7.66 19 -8.32 19 -9 19 C-7.541 11.866 -3.777 6.151 0 0 Z " fill="#CC0A19" transform="translate(469,424)"/>
<path d="M0 0 C0.99 0 1.98 0 3 0 C2.67 1.32 2.34 2.64 2 4 C1.67 3.67 1.34 3.34 1 3 C-0.32 11.91 -1.64 20.82 -3 30 C-3.33 30 -3.66 30 -4 30 C-4.175 23.549 -3.512 17.438 -2.562 11.062 C-2.428 10.105 -2.293 9.148 -2.154 8.162 C-1.131 1.131 -1.131 1.131 0 0 Z " fill="#CC0A19" transform="translate(666,343)"/>
<path d="M0 0 C2.821 0.613 5.138 1.472 7.672 2.848 C8.336 3.205 9 3.563 9.684 3.932 C10.366 4.305 11.047 4.678 11.75 5.062 C12.447 5.44 13.145 5.817 13.863 6.205 C15.578 7.133 17.289 8.066 19 9 C17 10 17 10 14.398 9.223 C13.401 8.84 12.403 8.457 11.375 8.062 C10.372 7.682 9.369 7.302 8.336 6.91 C7.565 6.61 6.794 6.309 6 6 C6 5.34 6 4.68 6 4 C5.01 3.835 5.01 3.835 0 3 C0 2.01 0 1.02 0 0 Z " fill="#CC0A19" transform="translate(566,601)"/>
<path d="M0 0 C0.33 0 0.66 0 1 0 C1.054 2.604 1.094 5.208 1.125 7.812 C1.142 8.55 1.159 9.288 1.176 10.049 C1.211 13.912 1.194 15.709 -1 19 C-3.602 19.512 -3.602 19.512 -6.625 19.688 C-7.126 19.72 -7.126 19.72 -9.664 19.887 C-10.049 19.905 -10.049 19.905 -12 20 C-12 19.67 -12 19.34 -12 19 C-11.434 18.879 -10.868 18.758 -10.285 18.633 C-9.552 18.465 -8.818 18.298 -8.062 18.125 C-7.332 17.963 -6.601 17.8 -5.848 17.633 C-4 17 -4 17 -3 15 C-2.01 15 -1.02 15 0 15 C0 10.05 0 5.1 0 0 Z " fill="#CC0A19" transform="translate(599,1027)"/>
<path d="M0 0 C1.557 3.113 0.277 5.296 -0.688 8.562 C-1.021 9.739 -1.355 10.916 -1.699 12.129 C-3 15 -3 15 -5.145 15.902 C-5.757 15.935 -6.369 15.967 -7 16 C-5.26 10.187 -3.189 5.168 0 0 Z " fill="#CC0A19" transform="translate(411,536)"/>
<path d="M0 0 C0.33 0 0.66 0 1 0 C0.67 4.95 0.34 9.9 0 15 C-1.32 14.67 -2.64 14.34 -4 14 C-4 10.7 -4 7.4 -4 4 C-3.67 4 -3.34 4 -3 4 C-2.67 5.65 -2.34 7.3 -2 9 C-1.34 6.03 -0.68 3.06 0 0 Z " fill="#CC0A19" transform="translate(671,783)"/>
<path d="M0 0 C0.66 0 1.32 0 2 0 C3.005 1.956 4.004 3.915 5 5.875 C5.557 6.966 6.114 8.056 6.688 9.18 C8 12 8 12 8 14 C6 14 6 14 3.438 12.062 C0.278 8.093 0.119 4.948 0 0 Z " fill="#CC0A19" transform="translate(628,655)"/>
<path d="M0 0 C2.31 0 4.62 0 7 0 C3.86 2.634 0.885 3.92 -3 5.188 C-4.031 5.532 -5.062 5.876 -6.125 6.23 C-9 7 -9 7 -13 7 C-13 6.34 -13 5.68 -13 5 C-12.145 4.807 -11.291 4.613 -10.41 4.414 C-9.305 4.154 -8.201 3.893 -7.062 3.625 C-5.96 3.37 -4.858 3.115 -3.723 2.852 C-2.824 2.571 -1.926 2.29 -1 2 C-0.67 1.34 -0.34 0.68 0 0 Z " fill="#CC0A19" transform="translate(550,566)"/>
<path d="M0 0 C0.754 0.005 1.508 0.009 2.285 0.014 C4.148 0.025 6.012 0.043 7.875 0.062 C4.673 2.197 3.416 2.378 -0.312 2.625 C-4.945 2.97 -9.52 3.454 -14.125 4.062 C-12.805 3.732 -11.485 3.403 -10.125 3.062 C-10.125 2.403 -10.125 1.742 -10.125 1.062 C-6.937 -0.532 -3.496 -0.039 0 0 Z " fill="#CC0A19" transform="translate(515.125,574.9375)"/>
<path d="M0 0 C0.66 0.33 1.32 0.66 2 1 C0.112 2.801 -1.785 4.59 -3.688 6.375 C-3.953 6.629 -3.953 6.629 -5.295 7.914 C-8.359 10.771 -10.911 12.741 -15 14 C-14.216 13.258 -13.433 12.515 -12.625 11.75 C-10.435 9.456 -9.173 7.878 -8 5 C-7.34 5 -6.68 5 -6 5 C-6 4.34 -6 3.68 -6 3 C-5.196 2.691 -4.391 2.381 -3.562 2.062 C-1 1 -1 1 0 0 Z " fill="#CC0A19" transform="translate(603,535)"/>
<path d="M0 0 C2.779 3.473 4.985 7.041 7 11 C6.67 11.99 6.34 12.98 6 14 C6 13.34 6 12.68 6 12 C5.34 12.33 5.34 12.33 2 14 C1.662 12.418 1.33 10.834 1 9.25 C0.814 8.368 0.629 7.487 0.438 6.578 C0 4 0 4 0 0 Z " fill="#CC0A19" transform="translate(887,459)"/>
<path d="M0 0 C-1.32 0.33 -2.64 0.66 -4 1 C-4 1.66 -4 2.32 -4 3 C-9.103 4.905 -13.463 6.426 -19 6 C-16.188 4.125 -13.776 3.041 -10.625 1.875 C-9.689 1.522 -8.753 1.169 -7.789 0.805 C-5.034 0.01 -2.848 -0.155 0 0 Z " fill="#CC0A19" transform="translate(800,591)"/>
<path d="M0 0 C1.32 0.33 2.64 0.66 4 1 C4 1.66 4 2.32 4 3 C-0.62 6.811 -4.067 7.591 -10 8 C-7.34 4.558 -4.097 4.005 0 3 C0 2.01 0 1.02 0 0 Z " fill="#CC0A19" transform="translate(988,1071)"/>
<path d="M0 0 C2.459 2.459 3.344 4.796 4.688 8 C5.145 9.072 5.603 10.145 6.074 11.25 C6.38 12.158 6.685 13.065 7 14 C6.67 14.66 6.34 15.32 6 16 C5.897 15.361 5.794 14.721 5.688 14.062 C5.461 13.382 5.234 12.701 5 12 C4.01 11.67 3.02 11.34 2 11 C2 10.01 2 9.02 2 8 C1.34 8 0.68 8 0 8 C0 5.36 0 2.72 0 0 Z " fill="#CC0A19" transform="translate(959,609)"/>
<path d="M0 0 C1.434 4.302 0.695 7.827 -1 12 C-2.905 13.91 -4.548 14.774 -7 16 C-5.354 10.315 -2.71 5.233 0 0 Z " fill="#CC0A19" transform="translate(554,262)"/>
<path d="M0 0 C0.66 0.33 1.32 0.66 2 1 C-2.62 5.95 -7.24 10.9 -12 16 C-12.66 15.67 -13.32 15.34 -14 15 C-9.38 10.05 -4.76 5.1 0 0 Z " fill="#CC0A19" transform="translate(606,189)"/>
<path d="M0 0 C0.99 0.33 1.98 0.66 3 1 C3 7.27 3 13.54 3 20 C2.67 20 2.34 20 2 20 C1.34 13.4 0.68 6.8 0 0 Z " fill="#CC0A19" transform="translate(670,348)"/>
<path d="M0 0 C4.839 0.53 8.15 1.944 12.312 4.438 C13.361 5.055 14.409 5.672 15.488 6.309 C18 8 18 8 19 10 C18.299 9.711 17.597 9.423 16.875 9.125 C13.945 7.979 10.991 6.974 8 6 C8 5.34 8 4.68 8 4 C7.423 3.897 6.845 3.794 6.25 3.688 C3.68 2.902 2.063 1.695 0 0 Z " fill="#CC0A19" transform="translate(701,169)"/>
<path d="M0 0 C0.66 0 1.32 0 2 0 C2 0.66 2 1.32 2 2 C2.99 2 3.98 2 5 2 C8 5.333 8 5.333 8 8 C8.66 8.33 9.32 8.66 10 9 C5.622 8.5 3.118 7.118 0 4 C0 2.68 0 1.36 0 0 Z " fill="#CC0A19" transform="translate(342,1070)"/>
<path d="M0 0 C1.316 2.633 0.748 3.802 0.062 6.625 C-0.132 7.442 -0.327 8.26 -0.527 9.102 C-0.605 9.415 -0.605 9.415 -1 11 C-1.66 11 -2.32 11 -3 11 C-3.124 11.784 -3.247 12.567 -3.375 13.375 C-4 16 -4 16 -6 18 C-5.413 13.51 -4.236 9.775 -2.438 5.625 C-1.982 4.565 -1.527 3.506 -1.059 2.414 C-0.709 1.617 -0.36 0.821 0 0 Z " fill="#CC0A19" transform="translate(695,683)"/>
<path d="M0 0 C0.33 0 0.66 0 1 0 C1.603 6.989 1.603 6.989 -0.113 9.867 C-1.337 11.309 -2.663 12.663 -4 14 C-5.305 10.084 -4.322 8.961 -2.562 5.312 C-2.089 4.319 -1.616 3.325 -1.129 2.301 C-0.756 1.542 -0.384 0.782 0 0 Z " fill="#CC0A19" transform="translate(377,607)"/>
<path d="M0 0 C0.66 0 1.32 0 2 0 C1.67 1.32 1.34 2.64 1 4 C-0.414 4.224 -1.832 4.428 -3.25 4.625 C-4.039 4.741 -4.828 4.857 -5.641 4.977 C-8.322 5.003 -9.727 4.366 -12 3 C-7.947 2.018 -4.161 1.918 0 2 C0 1.34 0 0.68 0 0 Z " fill="#CC0A19" transform="translate(843,581)"/>
<path d="M0 0 C-1.485 1.155 -1.485 1.155 -9 7 C-9.33 6.34 -9.66 5.68 -10 5 C-7.857 0.375 -7.857 0.375 -5 -0.875 C-3 -1 -3 -1 0 0 Z " fill="#CC0A19" transform="translate(595,543)"/>
<path d="M0 0 C0.33 1.32 0.66 2.64 1 4 C0.34 4 -0.32 4 -1 4 C-0.938 4.784 -0.876 5.567 -0.812 6.375 C-0.874 7.241 -0.936 8.108 -1 9 C-1.99 9.66 -2.98 10.32 -4 11 C-5.188 14.125 -5.188 14.125 -6 17 C-6.66 17 -7.32 17 -8 17 C-6.594 10.534 -3.546 5.542 0 0 Z " fill="#CC0A19" transform="translate(484,396)"/>
<path d="M0 0 C1.32 0 2.64 0 4 0 C4 1.32 4 2.64 4 4 C4.99 4.33 5.98 4.66 7 5 C8.188 8.562 8.188 8.562 9 12 C4.99 8.324 2.547 4.81 0 0 Z " fill="#CC0A19" transform="translate(711,511)"/>
<path d="M0 0 C2.972 2.548 4.415 5.453 6 9 C6 9.66 6 10.32 6 11 C3 11 3 11 1.312 9.438 C-0.434 6.194 -0.209 3.627 0 0 Z " fill="#CC0A19" transform="translate(796,286)"/>
<path d="M0 0 C2.694 2.53 4.679 4.807 6.312 8.125 C6.486 8.467 6.486 8.467 7.363 10.195 C7.468 10.493 7.468 10.493 8 12 C7.67 12.66 7.34 13.32 7 14 C5.109 13.383 5.109 13.383 3 12 C1.953 9.18 1.953 9.18 1.25 5.875 C1.008 4.779 0.765 3.684 0.516 2.555 C0.345 1.712 0.175 0.869 0 0 Z " fill="#CC0A19" transform="translate(768,235)"/>
<path d="M0 0 C2.407 2.407 2.791 4.114 3.688 7.375 C3.823 7.853 3.823 7.853 4.512 10.273 C4.995 12.971 4.9 14.45 4 17 C1.166 11.333 0.368 6.303 0 0 Z " fill="#CC0A19" transform="translate(648,698)"/>
<path d="M0 0 C1.062 1.812 1.062 1.812 2 4 C1.67 4.99 1.34 5.98 1 7 C0.34 7 -0.32 7 -1 7 C-0.67 7.99 -0.34 8.98 0 10 C-1.438 12.188 -1.438 12.188 -3 14 C-3.66 13.67 -4.32 13.34 -5 13 C-4.34 10.69 -3.68 8.38 -3 6 C-2.34 6 -1.68 6 -1 6 C-0.67 4.02 -0.34 2.04 0 0 Z " fill="#CC0A19" transform="translate(558,256)"/>
<path d="M0 0 C0.609 1.797 0.609 1.797 1 4 C-0.75 7.25 -0.75 7.25 -3 10 C-3.99 10 -4.98 10 -6 10 C-6.33 10.66 -6.66 11.32 -7 12 C-6.388 8.56 -5.079 6.484 -2.938 3.75 C-2.39 3.044 -1.842 2.337 -1.277 1.609 C-0.856 1.078 -0.434 0.547 0 0 Z " fill="#CC0A19" transform="translate(583,214)"/>
<path d="M0 0 C1 3 1 3 -0.215 5.48 C-0.783 6.374 -1.352 7.267 -1.938 8.188 C-2.503 9.089 -3.069 9.99 -3.652 10.918 C-4.097 11.605 -4.542 12.292 -5 13 C-5.66 12.67 -6.32 12.34 -7 12 C-5.35 8.7 -3.7 5.4 -2 2 C-1.34 2 -0.68 2 0 2 C0 1.34 0 0.68 0 0 Z " fill="#CC0A19" transform="translate(999,1059)"/>
<path d="M0 0 C0.66 0 1.32 0 2 0 C2.33 3.96 2.66 7.92 3 12 C2.01 12 1.02 12 0 12 C0 8.04 0 4.08 0 0 Z " fill="#CC0A19" transform="translate(659,747)"/>
<path d="M0 0 C3.405 3.891 6.242 8.114 8 13 C7.67 13.66 7.34 14.32 7 15 C6.381 14.031 5.763 13.061 5.125 12.062 C3 9 3 9 1 8 C0.406 5.351 0.258 2.708 0 0 Z " fill="#CC0A19" transform="translate(894,473)"/>
<path d="M0 0 C1.332 3.995 0.419 6.099 -1 10 C-1.99 10.66 -2.98 11.32 -4 12 C-4.33 12.99 -4.66 13.98 -5 15 C-5.66 15 -6.32 15 -7 15 C-5.455 9.521 -2.845 4.886 0 0 Z " fill="#CC0A19" transform="translate(520,328)"/>
<path d="M0 0 C4.429 5.143 4.429 5.143 5 9 C3.35 9 1.7 9 0 9 C-1.159 5.522 -0.708 3.541 0 0 Z " fill="#CC0A19" transform="translate(819,329)"/>
<path d="M0 0 C3.096 3.509 4.742 6.492 6 11 C5.34 11 4.68 11 4 11 C3.67 10.34 3.34 9.68 3 9 C0.938 7.875 0.938 7.875 -1 7 C-0.67 4.69 -0.34 2.38 0 0 Z " fill="#CC0A19" transform="translate(811,314)"/>
<path d="M0 0 C1.32 0.33 2.64 0.66 4 1 C4 1.99 4 2.98 4 4 C-0.625 6.125 -0.625 6.125 -4 5 C-2.68 3.35 -1.36 1.7 0 0 Z " fill="#CC0A19" transform="translate(732,627)"/>
<path d="M0 0 C3.429 3.756 4.564 8.235 6 13 C4 12 4 12 3 9 C0.938 7.812 0.938 7.812 -1 7 C-0.67 4.69 -0.34 2.38 0 0 Z " fill="#CC0A19" transform="translate(942,571)"/>
<path d="M0 0 C2.007 0.287 4.009 0.619 6 1 C6.33 2.32 6.66 3.64 7 5 C6.01 5 5.02 5 4 5 C3.34 4.34 2.68 3.68 2 3 C1.67 3.99 1.34 4.98 1 6 C0.34 6 -0.32 6 -1 6 C-1.043 4.334 -1.041 2.666 -1 1 C-0.67 0.67 -0.34 0.34 0 0 Z " fill="#CC0A19" transform="translate(915,524)"/>
<path d="M0 0 C0.33 0 0.66 0 1 0 C0.67 2.31 0.34 4.62 0 7 C-0.99 7.33 -1.98 7.66 -3 8 C-3.33 9.98 -3.66 11.96 -4 14 C-4.66 14 -5.32 14 -6 14 C-2.996 4.222 -2.996 4.222 0 0 Z " fill="#CC0A19" transform="translate(561,248)"/>
<path d="M0 0 C2.849 4.273 4.29 6.782 4 12 C3.01 11.67 2.02 11.34 1 11 C0.67 7.37 0.34 3.74 0 0 Z " fill="#CC0A19" transform="translate(974,644)"/>
<path d="M0 0 C0.66 0.99 1.32 1.98 2 3 C1.381 3.413 0.763 3.825 0.125 4.25 C-2 6 -2 6 -3.062 8.125 C-3.217 8.434 -3.217 8.434 -4 10 C-4.99 10.33 -5.98 10.66 -7 11 C-6.407 7.608 -5.233 5.789 -2.938 3.25 C-2.39 2.636 -1.842 2.023 -1.277 1.391 C-0.856 0.932 -0.434 0.473 0 0 Z " fill="#CC0A19" transform="translate(728,633)"/>
<path d="M0 0 C0 3 0 3 -1.531 4.824 C-2.181 5.439 -2.831 6.054 -3.5 6.688 C-4.15 7.31 -4.799 7.933 -5.469 8.574 C-5.974 9.045 -6.479 9.515 -7 10 C-7.66 8.68 -8.32 7.36 -9 6 C-8.361 5.897 -7.721 5.794 -7.062 5.688 C-6.382 5.461 -5.701 5.234 -5 5 C-4.67 4.01 -4.34 3.02 -4 2 C-1.938 0.812 -1.938 0.812 0 0 Z " fill="#CC0A19" transform="translate(613,525)"/>
<path d="M0 0 C0.66 0 1.32 0 2 0 C1.393 4.128 -0.038 7.332 -2 11 C-2.33 11 -2.66 11 -3 11 C-3.323 6.374 -2.845 3.72 0 0 Z " fill="#CC0A19" transform="translate(638,483)"/>
<path d="M0 0 C2.12 2.615 4.131 5.196 6 8 C5.67 8.99 5.34 9.98 5 11 C5 10.34 5 9.68 5 9 C4.01 9 3.02 9 2 9 C-0.29 5.565 -0.178 4.015 0 0 Z " fill="#CC0A19" transform="translate(784,264)"/>
<path d="M0 0 C0.66 0.33 1.32 0.66 2 1 C-0.801 4.113 -3.064 5.622 -7 7 C-8.341 7.652 -9.677 8.314 -11 9 C-7.566 5.364 -4.203 2.639 0 0 Z " fill="#CC0A19" transform="translate(755,609)"/>
<path d="M0 0 C3.335 2.99 5.215 5.895 7 10 C7 10.66 7 11.32 7 12 C6.34 12 5.68 12 5 12 C5 11.01 5 10.02 5 9 C4.01 8.67 3.02 8.34 2 8 C1.27 6.152 1.27 6.152 0.812 3.938 C0.654 3.204 0.495 2.471 0.332 1.715 C0.222 1.149 0.113 0.583 0 0 Z " fill="#CC0A19" transform="translate(896,481)"/>
<path d="M0 0 C0.66 0 1.32 0 2 0 C1.453 3.375 0.945 5.082 -1 8 C-1.66 8 -2.32 8 -3 8 C-3 8.66 -3 9.32 -3 10 C-3.66 10 -4.32 10 -5 10 C-4.34 8.02 -3.68 6.04 -3 4 C-2.01 4 -1.02 4 0 4 C0 2.68 0 1.36 0 0 Z " fill="#CC0A19" transform="translate(439,483)"/>
<path d="M0 0 C3.289 6.108 4.236 11.151 4 18 C1.033 12.503 -0.404 6.256 0 0 Z " fill="#CC0A19" transform="translate(682,437)"/>
<path d="M0 0 C2.62 2.371 4.358 4.873 6 8 C6 8.99 6 9.98 6 11 C5.01 11 4.02 11 3 11 C1.727 7.352 0.672 3.806 0 0 Z " fill="#CC0A19" transform="translate(790,275)"/>
<path d="M0 0 C0.33 0 0.66 0 1 0 C0.912 1.751 0.804 3.501 0.688 5.25 C0.629 6.225 0.571 7.199 0.512 8.203 C-0.046 11.253 -0.964 12.707 -3 15 C-2.449 9.761 -1.571 5.026 0 0 Z " fill="#CC0A19" transform="translate(346,684)"/>
<path d="M0 0 C1.32 0.33 2.64 0.66 4 1 C2.214 2.03 0.421 3.049 -1.375 4.062 C-1.874 4.347 -1.874 4.347 -4.398 5.785 C-5.257 6.186 -6.115 6.587 -7 7 C-7.66 6.67 -8.32 6.34 -9 6 C-4.5 2 -4.5 2 0 2 C0 1.34 0 0.68 0 0 Z " fill="#CC0A19" transform="translate(571,557)"/>
<path d="M0 0 C1.976 1.976 2.896 3.523 4.125 6 C4.478 6.701 4.831 7.402 5.195 8.125 C6 10 6 10 6 12 C4 12 4 12 2.438 10.5 C0.426 7.001 0.334 4.011 0 0 Z " fill="#CC0A19" transform="translate(874,433)"/>
<path d="M0 0 C0.66 0.99 1.32 1.98 2 3 C1.125 5.688 1.125 5.688 0 8 C-0.99 8 -1.98 8 -3 8 C-3.33 8.66 -3.66 9.32 -4 10 C-3.435 6.042 -2.191 3.334 0 0 Z " fill="#CC0A19" transform="translate(536,298)"/>
<path d="M0 0 C0.75 1.688 0.75 1.688 1 4 C-0.805 6.874 -2.013 8.644 -5.25 9.812 C-5.827 9.874 -6.405 9.936 -7 10 C-6.688 8.062 -6.688 8.062 -6 6 C-5.01 5.67 -4.02 5.34 -3 5 C-1.312 2.438 -1.312 2.438 0 0 Z " fill="#CC0A19" transform="translate(583,218)"/>
<path d="M0 0 C3.081 2.773 4.688 5.063 6 9 C4.68 8.67 3.36 8.34 2 8 C2 7.34 2 6.68 2 6 C1.34 6 0.68 6 0 6 C0 4.02 0 2.04 0 0 Z " fill="#CC0A19" transform="translate(751,210)"/>
<path d="M0 0 C1.086 3.242 0.94 5.023 -0.312 8.188 C-0.577 8.882 -0.841 9.577 -1.113 10.293 C-2 12 -2 12 -4 13 C-3.28 8.391 -1.687 4.328 0 0 Z " fill="#CC0A19" transform="translate(360,646)"/>
<path d="M0 0 C1.274 2.547 0.802 3.428 0.062 6.125 C-0.132 6.849 -0.327 7.574 -0.527 8.32 C-0.605 8.597 -0.605 8.597 -1 10 C-2.32 10.33 -3.64 10.66 -5 11 C-3.775 6.947 -2.301 3.556 0 0 Z " fill="#CC0A19" transform="translate(433,493)"/>
<path d="M0 0 C5.571 5.143 5.571 5.143 6 9 C4.125 8.75 4.125 8.75 2 8 C-0.028 5.06 0 3.723 0 0 Z " fill="#CC0A19" transform="translate(757,219)"/>
<path d="M0 0 C3.3 0 6.6 0 10 0 C10 0.33 10 0.66 10 1 C4.429 2.592 -0.211 3.207 -6 3 C-6 2.67 -6 2.34 -6 2 C-4.02 2 -2.04 2 0 2 C0 1.34 0 0.68 0 0 Z " fill="#CC0A19" transform="translate(424,1070)"/>
<path d="M0 0 C2.438 1.562 2.438 1.562 5 4 C5.812 7.75 5.812 7.75 6 11 C5.67 10.34 5.34 9.68 5 9 C4.34 9 3.68 9 3 9 C2.01 6.03 1.02 3.06 0 0 Z " fill="#CC0A19" transform="translate(616,639)"/>
<path d="M0 0 C0.33 0 0.66 0 1 0 C1 1.98 1 3.96 1 6 C0.34 6 -0.32 6 -1 6 C-1 6.99 -1 7.98 -1 9 C-1.99 9 -2.98 9 -4 9 C-2.941 5.597 -1.991 2.986 0 0 Z " fill="#CC0A19" transform="translate(494,377)"/>
<path d="M0 0 C4.09 2.285 7.464 4.957 11 8 C10.67 8.66 10.34 9.32 10 10 C9.01 9.34 8.02 8.68 7 8 C7 7.34 7 6.68 7 6 C6.402 5.711 5.804 5.423 5.188 5.125 C3 4 3 4 0 2 C0 1.34 0 0.68 0 0 Z " fill="#CC0A19" transform="translate(729,186)"/>
<path d="M0 0 C0.33 0 0.66 0 1 0 C1.393 4.449 0.153 7.142 -2 11 C-2.955 8.83 -3.144 7.437 -2.398 5.176 C-1.641 3.432 -0.824 1.714 0 0 Z " fill="#CC0A19" transform="translate(374,618)"/>
<path d="M0 0 C0.66 0.33 1.32 0.66 2 1 C-2.297 5.004 -2.297 5.004 -4 6 C-6.203 5.652 -6.203 5.652 -8 5 C-6.715 4.136 -5.422 3.284 -4.125 2.438 C-3.765 2.2 -3.765 2.2 -1.945 0.996 C-1.303 0.667 -0.661 0.339 0 0 Z " fill="#CC0A19" transform="translate(765,603)"/>
<path d="M0 0 C0 3.589 -0.664 4.109 -3 6.688 C-3.557 7.31 -4.114 7.933 -4.688 8.574 C-5.121 9.045 -5.554 9.515 -6 10 C-6.33 9.01 -6.66 8.02 -7 7 C-4.69 4.69 -2.38 2.38 0 0 Z " fill="#CC0A19" transform="translate(621,515)"/>
<path d="M0 0 C1.875 0.125 1.875 0.125 4 1 C5.25 4.062 5.25 4.062 6 7 C4.68 6.67 3.36 6.34 2 6 C2 5.01 2 4.02 2 3 C1.01 2.67 0.02 2.34 -1 2 C-0.67 1.34 -0.34 0.68 0 0 Z " fill="#CC0A19" transform="translate(829,352)"/>
<path d="M0 0 C0.825 0.33 0.825 0.33 5 2 C5 2.66 5 3.32 5 4 C6.32 4.66 7.64 5.32 9 6 C7 7 7 7 5.062 6.938 C1.916 5.507 1.308 3.074 0 0 Z " fill="#CC0A19" transform="translate(590,615)"/>
<path d="M0 0 C1.32 0 2.64 0 4 0 C3.67 0.99 3.34 1.98 3 3 C-0.96 3 -4.92 3 -9 3 C-9 2.67 -9 2.34 -9 2 C-6.03 2 -3.06 2 0 2 C0 1.34 0 0.68 0 0 Z " fill="#CC0A19" transform="translate(831,585)"/>
<path d="M0 0 C1.231 3.694 0.644 6.206 0 10 C-0.99 10.33 -1.98 10.66 -3 11 C-2.691 9.541 -2.378 8.083 -2.062 6.625 C-1.888 5.813 -1.714 5.001 -1.535 4.164 C-1 2 -1 2 0 0 Z " fill="#CC0A19" transform="translate(403,552)"/>
<path d="M0 0 C0.33 0.66 0.66 1.32 1 2 C1.99 2 2.98 2 4 2 C4.33 2.495 4.33 2.495 6 5 C5.67 5.99 5.34 6.98 5 8 C5 7.34 5 6.68 5 6 C4.01 6 3.02 6 2 6 C2 5.34 2 4.68 2 4 C1.34 4 0.68 4 0 4 C0 2.68 0 1.36 0 0 Z " fill="#CC0A19" transform="translate(925,539)"/>
<path d="M0 0 C0.495 0.33 0.495 0.33 3 2 C3 2.66 3 3.32 3 4 C3.66 4 4.32 4 5 4 C4.67 5.32 4.34 6.64 4 8 C3.01 7.67 2.02 7.34 1 7 C0.67 4.69 0.34 2.38 0 0 Z " fill="#CC0A19" transform="translate(875,441)"/>
<path d="M0 0 C2.154 2.622 3.401 4.644 4 8 C2.68 8 1.36 8 0 8 C0 5.36 0 2.72 0 0 Z " fill="#CC0A19" transform="translate(854,395)"/>
<path d="M0 0 C0.66 0.33 1.32 0.66 2 1 C-1.323 5.8 -1.323 5.8 -4.75 6.812 C-5.492 6.874 -6.235 6.936 -7 7 C-6.34 6.01 -5.68 5.02 -5 4 C-4.34 4 -3.68 4 -3 4 C-3 3.34 -3 2.68 -3 2 C-2.01 1.34 -1.02 0.68 0 0 Z " fill="#CC0A19" transform="translate(616,179)"/>
<path d="M0 0 C0.33 0 0.66 0 1 0 C1.293 6.055 1.293 6.055 1 8 C0.01 8.66 -0.98 9.32 -2 10 C-1.125 2.25 -1.125 2.25 0 0 Z " fill="#CC0A19" transform="translate(690,699)"/>
<path d="M0 0 C2.834 3.203 3.521 5.781 4 10 C1 8 1 8 0.488 6.055 C0.326 4.036 0.163 2.018 0 0 Z " fill="#CC0A19" transform="translate(948,585)"/>
<path d="M0 0 C2.763 0.523 5.326 1.109 8 2 C8 2.66 8 3.32 8 4 C5.688 4.25 5.688 4.25 3 4 C1.188 2 1.188 2 0 0 Z " fill="#CC0A19" transform="translate(738,539)"/>
<path d="M0 0 C1.32 0 2.64 0 4 0 C5.32 2.64 6.64 5.28 8 8 C4.65 6.883 4.207 6.253 2.312 3.438 C1.876 2.797 1.439 2.156 0.988 1.496 C0.825 1.249 0.825 1.249 0 0 Z " fill="#CC0A19" transform="translate(720,523)"/>
<path d="M0 0 C2.5 2.312 2.5 2.312 5 5 C5 5.99 5 6.98 5 8 C2 7 2 7 0 4 C0 2.68 0 1.36 0 0 Z " fill="#CC0A19" transform="translate(915,517)"/>
<path d="M0 0 C2.503 2.938 3.469 5.179 4 9 C3.01 9 2.02 9 1 9 C0.67 6.03 0.34 3.06 0 0 Z " fill="#CC0A19" transform="translate(881,449)"/>
<path d="M0 0 C0.625 1.812 0.625 1.812 1 4 C0.67 4.495 0.67 4.495 -1 7 C-1.66 7 -2.32 7 -3 7 C-3.33 7.99 -3.66 8.98 -4 10 C-4.33 9.34 -4.66 8.68 -5 8 C-4.004 6.055 -4.004 6.055 -2.562 3.875 C-2.089 3.151 -1.616 2.426 -1.129 1.68 C-0.756 1.125 -0.384 0.571 0 0 Z " fill="#CC0A19" transform="translate(567,238)"/>
<path d="M0 0 C2.64 0 5.28 0 8 0 C7.34 0.66 6.68 1.32 6 2 C4.68 2 3.36 2 2 2 C2.33 2.99 2.66 3.98 3 5 C2.01 4.67 1.02 4.34 0 4 C0 2.68 0 1.36 0 0 Z " fill="#CC0A19" transform="translate(493,579)"/>
<path d="M0 0 C2.5 2.174 3.436 3.73 4 7 C3.01 7 2.02 7 1 7 C0.34 5.02 -0.32 3.04 -1 1 C-0.67 0.67 -0.34 0.34 0 0 Z " fill="#CC0A19" transform="translate(850,388)"/>
<path d="M0 0 C0.66 0.33 1.32 0.66 2 1 C1.188 3.938 1.188 3.938 0 7 C-0.99 7.33 -1.98 7.66 -3 8 C-1.125 1.125 -1.125 1.125 0 0 Z " fill="#CC0A19" transform="translate(500,369)"/>
<path d="M0 0 C1.392 4.176 -0.177 6.135 -2 10 C-2.66 10 -3.32 10 -4 10 C-2.891 6.513 -1.737 3.225 0 0 Z " fill="#CC0A19" transform="translate(546,278)"/>
<path d="M0 0 C1.65 0.99 3.3 1.98 5 3 C4.67 3.99 4.34 4.98 4 6 C3.34 6 2.68 6 2 6 C2 5.34 2 4.68 2 4 C1.34 4 0.68 4 0 4 C0 2.68 0 1.36 0 0 Z " fill="#CC0A19" transform="translate(738,195)"/>
<path d="M0 0 C1.125 1.5 1.125 1.5 2 4 C1.576 6.777 0.811 9.296 0 12 C-0.33 12 -0.66 12 -1 12 C-1.143 3.429 -1.143 3.429 0 0 Z " fill="#CC0A19" transform="translate(679,743)"/>
<path d="M0 0 C4.875 4.625 4.875 4.625 6 8 C4 8 4 8 1.875 6.25 C0 4 0 4 0 0 Z " fill="#CC0A19" transform="translate(599,622)"/>
<path d="M0 0 C-1.98 1.32 -3.96 2.64 -6 4 C-6.66 3.67 -7.32 3.34 -8 3 C-7.67 2.01 -7.34 1.02 -7 0 C-2.25 -1.125 -2.25 -1.125 0 0 Z " fill="#CC0A19" transform="translate(588,550)"/>
<path d="M0 0 C0.99 0.33 1.98 0.66 3 1 C4.688 4.562 4.688 4.562 6 8 C4.125 7.375 4.125 7.375 2 6 C0.75 2.875 0.75 2.875 0 0 Z " fill="#CC0A19" transform="translate(726,527)"/>
<path d="M0 0 C0.66 0 1.32 0 2 0 C0.75 3.653 0.329 4.781 -3 7 C-3 5.68 -3 4.36 -3 3 C-2.34 3 -1.68 3 -1 3 C-0.67 2.01 -0.34 1.02 0 0 Z " fill="#CC0A19" transform="translate(621,511)"/>
<path d="M0 0 C2.154 2.622 3.401 4.644 4 8 C3.01 8 2.02 8 1 8 C0.67 5.36 0.34 2.72 0 0 Z " fill="#CC0A19" transform="translate(887,459)"/>
<path d="M0 0 C0.33 0 0.66 0 1 0 C1 1.65 1 3.3 1 5 C-0.65 5.66 -2.3 6.32 -4 7 C-3.34 5.35 -2.68 3.7 -2 2 C-1.34 2 -0.68 2 0 2 C0 1.34 0 0.68 0 0 Z " fill="#CC0A19" transform="translate(525,321)"/>
<path d="M0 0 C1.485 0.33 1.485 0.33 9 2 C5.306 3.231 2.794 2.644 -1 2 C-0.67 1.34 -0.34 0.68 0 0 Z " fill="#CC0A19" transform="translate(681,166)"/>
</svg>
